<?xml version="1.0" encoding="UTF-8" standalone="no"?>
<!-- Created with Inkscape (http://www.inkscape.org/) -->

<svg
   width="120"
   height="120"
   viewBox="0 0 120 120"
   version="1.1"
   id="svg1"
   xml:space="preserve"
   xmlns="http://www.w3.org/2000/svg"
   xmlns:svg="http://www.w3.org/2000/svg"><defs
     id="defs1"><clipPath
       id="eeb921188e"><path
         d="M 0.0820312,0 H 1572.918 V 1780.5 H 0.0820312 Z m 0,0"
         clip-rule="nonzero"
         id="path1" /></clipPath><clipPath
       id="b1958fc09d"><path
         d="m 669,816 h 256 v 268 H 669 Z m 0,0"
         clip-rule="nonzero"
         id="path2" /></clipPath><clipPath
       id="4fa1238ea9"><path
         d="M 808.98437,816.15234 924.6875,907.53125 785.58594,1083.6602 669.88281,992.28516 Z m 0,0"
         clip-rule="nonzero"
         id="path3" /></clipPath><clipPath
       id="d614345368"><path
         d="m 481,873 h 359 v 451 H 481 Z m 0,0"
         clip-rule="nonzero"
         id="path4" /></clipPath><clipPath
       id="8b094ab699"><path
         d="m 703.36328,873.40234 136.04688,82.10547 -222.16797,368.12889 -136.05078,-82.1054 z m 0,0"
         clip-rule="nonzero"
         id="path5" /></clipPath><clipPath
       id="a18df04267"><path
         d="M 429,1 H 994 V 487 H 429 Z m 0,0"
         clip-rule="nonzero"
         id="path6" /></clipPath><clipPath
       id="27991872fe"><path
         d="m 872.03906,1.011719 121.1875,170.582031 -443.03515,314.75 -121.1875,-170.58203 z m 0,0"
         clip-rule="nonzero"
         id="path7" /></clipPath><clipPath
       id="9056c03688"><path
         d="m 620,1323 h 521 v 457.5 H 620 Z m 0,0"
         clip-rule="nonzero"
         id="path8" /></clipPath><clipPath
       id="0f7918dfb0"><path
         d="m 1016.375,1323.6367 124.5742,175.3477 -396.19529,281.4765 -124.57813,-175.3476 z m 0,0"
         clip-rule="nonzero"
         id="path9" /></clipPath></defs><g
     id="layer1"><g
       id="g2"
       transform="matrix(0.11546969,0,0,0.11546969,-29.593337,-42.929012)"><g
         clip-path="url(#eeb921188e)"
         id="g10"><path
           fill="#ffffff"
           d="M 0.0820312,0 H 1572.918 V 1780.5 H 0.0820312 Z m 0,0"
           fill-opacity="1"
           fill-rule="nonzero"
           id="path10" /></g><g
         fill="#394886"
         fill-opacity="1"
         id="g13"><g
           transform="translate(263.79733,1017.4332)"
           id="g12"><g
             id="g11"><path
               d="m 574.89062,-10.859375 c 1.80079,0 2.70313,1.8125 2.70313,5.4375 C 577.59375,-1.804688 576.69141,0 574.89062,0 H 473.48437 c -21.125,0 -33.80468,-1.207031 -38.03125,-3.625 -4.21875,-2.414062 -15.23046,-16.296875 -33.03125,-41.640625 -17.80468,-25.351563 -39.38281,-54.019531 -64.73437,-85.999995 L 193.73437,-309.625 l -31.6875,30.78125 v 205.515625 c 0,18.710937 1.96094,32.289063 5.89063,40.734375 3.92578,8.449219 11.32031,14.183594 22.1875,17.203125 10.86328,3.023437 28.36328,4.53125 52.5,4.53125 1.20703,0 1.8125,1.8125 1.8125,5.4375 C 244.4375,-1.804688 243.83203,0 242.625,0 224.51953,0 210.03516,-0.300781 199.17187,-0.90625 L 137.60937,-1.8125 77.859375,-0.90625 C 66.992188,-0.300781 51.90625,0 32.59375,0 c -1.210938,0 -1.8125,-1.804688 -1.8125,-5.421875 0,-3.625 0.601562,-5.4375 1.8125,-5.4375 23.539062,0 40.890625,-1.507813 52.046875,-4.53125 11.164063,-3.019531 18.863285,-8.90625 23.093755,-17.65625 4.22656,-8.75 6.34375,-22.175781 6.34375,-40.28125 V -492.5 c 0,-18.10156 -1.96485,-31.37891 -5.89063,-39.82812 -3.92969,-8.44532 -11.476562,-14.33204 -22.640625,-17.65625 -11.15625,-3.32032 -28.507813,-4.98438 -52.046875,-4.98438 -1.210938,0 -1.8125,-1.80469 -1.8125,-5.42187 0,-3.625 0.601562,-5.4375 1.8125,-5.4375 l 44.359375,0.90625 c 25.343755,1.21093 45.257815,1.8125 59.749995,1.8125 16.28907,0 37.11329,-0.60157 62.46875,-1.8125 l 42.54688,-0.90625 c 1.20703,0 1.8125,1.8125 1.8125,5.4375 0,3.61718 -0.60547,5.42187 -1.8125,5.42187 -23.54297,0 -40.89844,1.8125 -52.0625,5.4375 -11.15625,3.61719 -18.69922,9.80469 -22.625,18.5625 -3.92969,8.75 -5.89063,22.17969 -5.89063,40.28125 v 191.03125 L 361.21875,-497.9375 C 381.73828,-518.45703 392,-532.64062 392,-540.48437 c 0,-5.42579 -4.07422,-9.19532 -12.21875,-11.3125 -8.14844,-2.11329 -21.57422,-3.17188 -40.28125,-3.17188 -1.21094,0 -1.8125,-1.80469 -1.8125,-5.42187 0,-3.625 0.60156,-5.4375 1.8125,-5.4375 l 38.01562,0.90625 c 22.9375,1.21093 44.36329,1.8125 64.28125,1.8125 18.70704,0 38.32032,-0.60157 58.84375,-1.8125 l 31.6875,-0.90625 c 1.8125,0 2.71875,1.8125 2.71875,5.4375 0,3.61718 -0.90625,5.42187 -2.71875,5.42187 -24.74218,0 -50.24218,4.67969 -76.5,14.03125 -26.25,9.35547 -50.84375,25.5 -73.78125,48.4375 L 228.14062,-342.21875 357.60937,-179.25 c 45.86329,57.33594 80.86329,97.773438 105,121.3125 24.14454,23.53125 42.55469,37.261719 55.23438,41.1875 12.67578,3.929688 31.69141,5.890625 57.04687,5.890625 z m 0,0"
               id="path11" /></g></g></g><g
         clip-path="url(#b1958fc09d)"
         id="g15"><g
           clip-path="url(#4fa1238ea9)"
           id="g14"><path
             fill="#ffffff"
             d="M 808.98437,816.15234 924.6875,907.53125 785.48047,1083.7969 669.77734,992.41797 Z m 0,0"
             fill-opacity="1"
             fill-rule="nonzero"
             id="path13" /></g></g><g
         fill="#394886"
         fill-opacity="1"
         id="g18"><g
           transform="translate(638.96581,1313.1997)"
           id="g17"><g
             id="g16"><path
               d="m 628.29687,-10.859375 c 2.41407,0 3.625,1.8125 3.625,5.4375 0,3.617187 -1.21093,5.421875 -3.625,5.421875 -10.86718,0 -28.37109,-0.601562 -52.51562,-1.8125 -22.92969,-1.207031 -39.82422,-1.8125 -50.6875,-1.8125 -12.67969,0 -29.27734,0.605469 -49.79688,1.8125 C 455.98437,-0.601562 441.5,0 431.84375,0 c -2.41797,0 -3.625,-1.804688 -3.625,-5.421875 0,-3.625 1.20703,-5.4375 3.625,-5.4375 24.73828,0 42.53906,-2.257813 53.40625,-6.78125 10.86328,-4.53125 16.29687,-12.226563 16.29687,-23.09375 0,-8.457031 -3.32031,-20.226563 -9.95312,-35.3125 L 406.5,-259.82812 H 191.03125 l -61.5625,148.46874 c -8.46094,20.523442 -12.6875,37.42188 -12.6875,50.70313 0,17.5 7.24219,30.179688 21.73437,38.03125 14.48829,7.84375 37.125,11.765625 67.90625,11.765625 3.00782,0 4.51563,1.8125 4.51563,5.4375 C 210.9375,-1.804688 209.42969,0 206.42187,0 195.55469,0 179.86328,-0.601562 159.34375,-1.8125 136.40625,-3.019531 116.48828,-3.625 99.59375,-3.625 84.5,-3.625 66.691406,-3.019531 46.171875,-1.8125 28.066406,-0.601562 13.28125,0 1.8125,0 c -3.019531,0 -4.53125,-1.804688 -4.53125,-5.421875 0,-3.625 1.511719,-5.4375 4.53125,-5.4375 16.894531,0 31.226562,-3.015625 43,-9.046875 11.769531,-6.039062 22.9375,-16.90625 33.5,-32.59375 10.5625,-15.695312 21.87891,-38.03125 33.95313,-67 l 189.20312,-455.39062 c 1.20703,-1.80079 3.17187,-2.70313 5.89062,-2.70313 2.71875,0 4.37891,0.90234 4.98438,2.70313 L 522.375,-124.03125 c 13.88281,30.78125 26.25391,54.171875 37.10937,70.171875 10.86329,15.992187 21.57813,27.15625 32.14063,33.5 10.5625,6.335937 22.78516,9.5 36.67187,9.5 z M 198.26562,-276.125 H 398.34375 L 292.42187,-503.35937 Z m 0,0"
               id="path15" /></g></g></g><g
         clip-path="url(#d614345368)"
         id="g20"><g
           clip-path="url(#8b094ab699)"
           id="g19"><path
             fill="#ffffff"
             d="m 703.36328,873.40234 136.04688,82.10547 -222.26563,368.28909 -136.04687,-82.1094 z m 0,0"
             fill-opacity="1"
             fill-rule="nonzero"
             id="path18" /></g></g><path
         stroke-linecap="round"
         transform="matrix(0.414603,-0.624605,0.624605,0.414603,481.24964,1317.7937)"
         fill="none"
         stroke-linejoin="miter"
         d="M 6.998884,6.999694 1310.486,6.999484"
         stroke="#394886"
         stroke-width="14"
         stroke-opacity="1"
         stroke-miterlimit="4"
         id="path20" /><g
         clip-path="url(#a18df04267)"
         id="g22"><g
           clip-path="url(#27991872fe)"
           id="g21"><path
             fill="#ffffff"
             d="M 872.03906,1.011719 993.22656,171.59375 550.10937,486.40234 428.91797,315.82031 Z m 0,0"
             fill-opacity="1"
             fill-rule="nonzero"
             id="path21" /></g></g><g
         clip-path="url(#9056c03688)"
         id="g24"><g
           clip-path="url(#0f7918dfb0)"
           id="g23"><path
             fill="#ffffff"
             d="m 1016.375,1323.6367 124.5742,175.3477 -395.90623,281.2695 -124.57422,-175.3476 z m 0,0"
             fill-opacity="1"
             fill-rule="nonzero"
             id="path22" /></g></g></g></g></svg>
