<svg xmlns="http://www.w3.org/2000/svg" id="canvas" viewBox="325.605 324.298 1550.150 420.000"><path d="M 358.13,380.34 C 357.70 381.44, 357.67 382.19, 356.78 386.01 C 355.89 389.83, 355.35 392.18, 353.69 399.45 C 352.03 406.72, 350.82 411.55, 348.46 422.37 C 346.10 433.19, 344.44 440.02, 341.90 453.56 C 339.37 467.10, 337.89 475.26, 335.79 490.08 C 333.68 504.89, 332.72 513.29, 331.36 527.63 C 330.01 541.97, 329.52 549.58, 329.02 561.80 C 328.52 574.01, 328.47 579.94, 328.88 588.70 C 329.29 597.45, 329.60 600.99, 331.05 605.58 C 332.50 610.16, 333.54 611.47, 336.14 611.62 C 338.75 611.77, 340.36 610.52, 344.06 606.33 C 347.76 602.13, 349.88 598.76, 354.65 590.63 C 359.41 582.51, 362.20 577.10, 367.89 565.72 C 373.57 554.34, 376.85 547.25, 383.08 533.75 C 389.31 520.24, 392.84 512.35, 399.03 498.20 C 405.21 484.06, 408.53 476.28, 414.02 463.02 C 419.50 449.76, 422.22 442.92, 426.45 431.89 C 430.68 420.85, 432.61 415.70, 435.18 407.84 C 437.74 399.97, 438.79 396.86, 439.26 392.56 C 439.73 388.26, 439.18 386.90, 437.52 386.32 C 435.86 385.74, 434.41 386.57, 430.97 389.65 C 427.53 392.73, 425.38 395.34, 420.33 401.72 C 415.29 408.10, 411.97 412.34, 405.74 421.56 C 399.52 430.78, 395.64 436.57, 389.21 447.81 C 382.78 459.06, 379.09 465.70, 373.58 477.79 C 368.07 489.87, 365.28 496.51, 361.67 508.23 C 358.05 519.95, 356.66 526.03, 355.52 536.39 C 354.37 546.75, 354.48 551.81, 355.93 560.03 C 357.38 568.26, 358.88 571.97, 362.77 577.52 C 366.66 583.06, 369.48 585.25, 375.39 587.77 C 381.29 590.29, 385.12 590.75, 392.31 590.13 C 399.51 589.50, 403.80 588.17, 411.36 584.64 C 418.91 581.11, 423.12 578.21, 430.10 572.48 C 437.08 566.74, 440.61 562.95, 446.25 555.97 C 451.89 548.99, 454.38 544.89, 458.30 537.57 C 462.22 530.26, 463.63 526.27, 465.85 519.39 C 468.08 512.50, 468.61 508.94, 469.41 503.16 C 470.22 497.38, 470.16 494.61, 469.89 490.49 C 469.61 486.37, 469.15 484.58, 468.03 482.55 C 466.91 480.53, 465.86 480.03, 464.29 480.36 C 462.72 480.68, 461.54 481.54, 460.19 484.19 C 458.84 486.83, 458.34 489.04, 457.55 493.58 C 456.77 498.12, 456.42 501.21, 456.27 506.90 C 456.12 512.60, 456.17 516.15, 456.81 522.06 C 457.44 527.97, 457.96 531.38, 459.45 536.46 C 460.95 541.53, 461.88 544.20, 464.28 547.44 C 466.68 550.68, 468.25 552.05, 471.45 552.64 C 474.65 553.24, 476.64 552.84, 480.27 550.44 C 483.91 548.03, 485.93 545.76, 489.63 540.61 C 493.33 535.47, 495.43 531.52, 498.77 524.70 C 502.11 517.88, 503.84 513.37, 506.34 506.52 C 508.84 499.67, 509.89 495.49, 511.27 490.47 C 512.65 485.45, 513.02 483.04, 513.25 481.42 C 513.47 479.80, 512.77 479.85, 512.42 482.36 C 512.06 484.88, 511.90 487.40, 511.49 494.00 C 511.08 500.60, 510.81 505.21, 510.36 515.36 C 509.90 525.50, 509.70 531.84, 509.20 544.73 C 508.70 557.62, 508.48 565.19, 507.86 579.80 C 507.24 594.41, 506.98 602.68, 506.09 617.77 C 505.20 632.87, 504.75 641.10, 503.42 655.26 C 502.08 669.42, 501.30 676.67, 499.43 688.58 C 497.57 700.48, 496.41 706.08, 494.11 714.77 C 491.81 723.47, 490.38 727.10, 487.91 732.06 C 485.45 737.03, 483.97 738.41, 481.79 739.61 C 479.61 740.82, 478.69 740.48, 477.02 738.08 C 475.35 735.68, 474.28 733.55, 473.45 727.61 C 472.62 721.67, 472.26 717.48, 472.86 708.38 C 473.46 699.28, 474.10 693.49, 476.45 682.11 C 478.79 670.73, 480.53 664.18, 484.58 651.49 C 488.64 638.80, 491.23 632.00, 496.72 618.65 C 502.21 605.31, 505.54 598.43, 512.05 584.77 C 518.56 571.10, 522.28 564.16, 529.26 550.33 C 536.25 536.50, 540.08 529.41, 546.98 515.62 C 553.88 501.83, 557.56 494.71, 563.76 481.38 C 569.95 468.05, 573.03 461.23, 577.96 448.97 C 582.89 436.71, 585.11 430.53, 588.42 420.09 C 591.72 409.65, 592.92 404.67, 594.48 396.77 C 596.05 388.87, 596.34 385.47, 596.23 380.59 C 596.13 375.71, 595.62 373.92, 593.98 372.37 C 592.34 370.81, 590.72 370.76, 588.02 372.82 C 585.33 374.87, 583.69 376.85, 580.50 382.64 C 577.32 388.43, 575.40 392.42, 572.10 401.78 C 568.80 411.14, 566.88 417.21, 564.00 429.43 C 561.12 441.65, 559.58 449.20, 557.70 462.88 C 555.81 476.56, 555.03 484.52, 554.56 497.84 C 554.10 511.15, 554.23 518.19, 555.37 529.45 C 556.52 540.72, 557.53 546.03, 560.30 554.16 C 563.07 562.28, 564.98 565.69, 569.22 570.09 C 573.46 574.49, 576.19 575.75, 581.50 576.17 C 586.82 576.59, 590.02 575.58, 595.78 572.19 C 601.55 568.80, 604.91 565.73, 610.34 559.22 C 615.78 552.72, 618.77 547.96, 622.95 539.66 C 627.13 531.36, 629.03 525.98, 631.23 517.71 C 633.43 509.43, 633.95 504.84, 633.95 498.29 C 633.96 491.74, 633.22 488.74, 631.27 484.97 C 629.33 481.20, 627.43 479.92, 624.23 479.45 C 621.03 478.97, 618.70 479.85, 615.28 482.59 C 611.85 485.33, 609.85 487.82, 607.10 493.15 C 604.34 498.48, 602.88 502.21, 601.51 509.23 C 600.14 516.26, 599.66 520.72, 600.24 528.29 C 600.82 535.85, 601.61 540.25, 604.40 547.04 C 607.19 553.84, 609.28 557.35, 614.17 562.26 C 619.06 567.18, 622.29 569.19, 628.86 571.62 C 635.42 574.05, 640.05 574.17, 647.00 574.42 C 653.95 574.68, 658.01 573.76, 663.61 572.90 C 669.21 572.04, 671.56 571.13, 675.00 570.12 C 678.44 569.10, 679.47 568.48, 680.82 567.84 C 682.18 567.19, 681.78 567.10, 681.78 566.91 C 681.78 566.72, 681.15 566.83, 680.81 566.90 C 680.48 566.97, 680.14 567.03, 680.10 567.28 C 680.07 567.52, 680.40 568.05, 680.64 568.13 C 680.87 568.21, 681.04 567.93, 681.27 567.66 C 681.50 567.39, 681.96 566.98, 681.79 566.78 C 681.61 566.59, 681.85 566.30, 680.40 566.67 C 678.96 567.03, 677.95 567.59, 674.55 568.60 C 671.16 569.60, 668.92 570.74, 663.42 571.70 C 657.91 572.65, 653.88 573.57, 647.03 573.38 C 640.19 573.18, 635.63 573.07, 629.19 570.72 C 622.75 568.36, 619.62 566.41, 614.83 561.60 C 610.05 556.79, 608.00 553.36, 605.28 546.68 C 602.56 540.01, 601.76 535.66, 601.23 528.21 C 600.69 520.76, 601.19 516.34, 602.60 509.45 C 604.00 502.56, 605.53 498.90, 608.24 493.75 C 610.95 488.60, 613.00 486.28, 616.17 483.69 C 619.33 481.10, 621.23 480.42, 624.04 480.78 C 626.86 481.15, 628.45 482.00, 630.24 485.50 C 632.03 489.00, 632.95 491.90, 632.98 498.29 C 633.01 504.69, 632.56 509.29, 630.40 517.49 C 628.24 525.68, 626.34 531.04, 622.19 539.27 C 618.04 547.51, 615.02 552.22, 609.65 558.64 C 604.27 565.06, 600.91 568.04, 595.29 571.36 C 589.68 574.68, 586.67 575.60, 581.58 575.23 C 576.48 574.86, 573.94 573.77, 569.82 569.51 C 565.69 565.25, 563.73 561.95, 560.96 553.93 C 558.19 545.91, 557.13 540.61, 555.96 529.39 C 554.79 518.18, 554.66 511.14, 555.11 497.86 C 555.57 484.57, 556.35 476.62, 558.26 462.96 C 560.16 449.31, 561.71 441.76, 564.63 429.58 C 567.56 417.41, 569.53 411.34, 572.90 402.07 C 576.27 392.79, 578.30 388.83, 581.49 383.20 C 584.69 377.56, 586.52 375.91, 588.88 373.88 C 591.24 371.85, 592.04 371.70, 593.31 373.04 C 594.58 374.39, 595.13 375.89, 595.22 380.61 C 595.31 385.33, 595.22 388.77, 593.75 396.63 C 592.28 404.49, 591.11 409.48, 587.85 419.91 C 584.60 430.34, 582.39 436.52, 577.49 448.78 C 572.58 461.03, 569.51 467.86, 563.33 481.18 C 557.15 494.51, 553.47 501.63, 546.58 515.42 C 539.68 529.20, 535.85 536.30, 528.86 550.13 C 521.87 563.96, 518.15 570.90, 511.63 584.56 C 505.10 598.23, 501.77 605.11, 496.25 618.46 C 490.74 631.81, 488.14 638.61, 484.04 651.31 C 479.95 664.02, 478.19 670.57, 475.77 681.97 C 473.36 693.37, 472.66 699.16, 471.96 708.32 C 471.27 717.48, 471.49 721.66, 472.29 727.77 C 473.09 733.88, 473.96 736.30, 475.97 738.86 C 477.97 741.43, 479.76 741.89, 482.31 740.61 C 484.86 739.33, 486.23 737.59, 488.72 732.46 C 491.21 727.33, 492.51 723.70, 494.76 714.94 C 497.01 706.18, 498.15 700.59, 499.98 688.66 C 501.81 676.73, 502.59 669.47, 503.91 655.30 C 505.23 641.13, 505.69 632.90, 506.58 617.80 C 507.48 602.71, 507.74 594.43, 508.39 579.82 C 509.04 565.21, 509.26 557.64, 509.83 544.75 C 510.40 531.87, 510.65 525.54, 511.22 515.40 C 511.79 505.27, 512.16 500.67, 512.66 494.08 C 513.16 487.49, 513.75 485.02, 513.71 482.44 C 513.66 479.86, 513.16 479.63, 512.42 481.17 C 511.68 482.70, 511.43 485.12, 510.01 490.11 C 508.59 495.11, 507.75 499.33, 505.31 506.14 C 502.86 512.96, 501.11 517.46, 497.77 524.21 C 494.43 530.95, 492.27 534.87, 488.62 539.88 C 484.96 544.89, 482.87 547.00, 479.49 549.26 C 476.11 551.51, 474.54 551.70, 471.73 551.16 C 468.92 550.62, 467.66 549.59, 465.46 546.57 C 463.27 543.55, 462.22 541.00, 460.75 536.07 C 459.29 531.14, 458.73 527.74, 458.13 521.92 C 457.53 516.10, 457.51 512.56, 457.76 506.96 C 458.00 501.35, 458.48 498.29, 459.36 493.92 C 460.24 489.55, 461.12 487.62, 462.16 485.10 C 463.21 482.58, 463.65 481.72, 464.57 481.34 C 465.48 480.96, 465.96 481.34, 466.74 483.19 C 467.52 485.04, 468.15 486.63, 468.47 490.60 C 468.79 494.56, 469.03 497.32, 468.33 503.02 C 467.64 508.72, 467.14 512.28, 464.98 519.11 C 462.83 525.94, 461.44 529.91, 457.57 537.19 C 453.70 544.46, 451.23 548.53, 445.63 555.46 C 440.03 562.39, 436.50 566.16, 429.58 571.84 C 422.65 577.52, 418.45 580.37, 410.99 583.85 C 403.52 587.32, 399.28 588.60, 392.23 589.21 C 385.18 589.83, 381.50 589.37, 375.74 586.94 C 369.98 584.50, 367.27 582.45, 363.44 577.04 C 359.62 571.64, 358.10 568.02, 356.63 559.91 C 355.17 551.79, 355.02 546.76, 356.13 536.46 C 357.25 526.16, 358.62 520.09, 362.21 508.40 C 365.80 496.71, 368.59 490.08, 374.10 478.02 C 379.60 465.97, 383.29 459.33, 389.75 448.12 C 396.20 436.92, 400.10 431.14, 406.37 421.99 C 412.64 412.84, 416.03 408.64, 421.12 402.35 C 426.21 396.06, 428.57 393.63, 431.81 390.55 C 435.05 387.48, 436.02 386.58, 437.31 386.96 C 438.61 387.34, 438.86 388.31, 438.30 392.44 C 437.73 396.57, 436.97 399.77, 434.49 407.62 C 432.02 415.47, 430.11 420.65, 425.92 431.69 C 421.74 442.73, 419.03 449.56, 413.56 462.83 C 408.09 476.09, 404.77 483.87, 398.58 498.01 C 392.38 512.15, 388.85 520.04, 382.60 533.52 C 376.34 547.00, 373.04 554.09, 367.30 565.42 C 361.56 576.76, 358.71 582.15, 353.91 590.19 C 349.10 598.24, 346.81 601.53, 343.26 605.63 C 339.72 609.73, 338.45 610.75, 336.18 610.68 C 333.91 610.62, 333.24 609.72, 331.91 605.31 C 330.59 600.91, 330.04 597.36, 329.57 588.66 C 329.11 579.96, 329.12 574.02, 329.58 561.82 C 330.04 549.62, 330.53 542.01, 331.87 527.68 C 333.21 513.34, 334.18 504.95, 336.30 490.15 C 338.42 475.35, 339.90 467.20, 342.48 453.67 C 345.07 440.15, 346.76 433.33, 349.21 422.53 C 351.65 411.74, 352.93 406.94, 354.72 399.70 C 356.50 392.45, 357.29 390.16, 358.14 386.32 C 358.99 382.48, 358.96 381.69, 358.96 380.50 C 358.96 379.30, 358.57 379.24, 358.13 380.34" style="stroke: black; fill: black;"/><path d="M 892.05,485.89 C 892.61 485.43, 893.37 484.79, 893.93 483.14 C 894.50 481.49, 894.96 480.19, 894.89 477.67 C 894.82 475.14, 894.80 473.31, 893.59 470.51 C 892.37 467.72, 891.42 465.91, 888.81 463.70 C 886.20 461.49, 884.42 460.24, 880.55 459.46 C 876.68 458.69, 874.29 458.47, 869.44 459.82 C 864.60 461.18, 861.66 462.34, 856.32 466.22 C 850.97 470.10, 847.80 472.84, 842.71 479.23 C 837.62 485.61, 834.87 489.91, 830.87 498.15 C 826.86 506.39, 825.03 511.61, 822.68 520.42 C 820.33 529.23, 819.60 534.30, 819.11 542.20 C 818.63 550.09, 818.92 554.17, 820.27 559.89 C 821.63 565.61, 822.87 568.22, 825.90 570.79 C 828.92 573.36, 831.18 573.82, 835.41 572.74 C 839.64 571.66, 842.22 569.91, 847.03 565.40 C 851.84 560.88, 854.67 557.43, 859.47 550.16 C 864.27 542.90, 866.96 537.87, 871.04 529.09 C 875.11 520.31, 877.06 514.79, 879.85 506.27 C 882.65 497.76, 883.68 493.13, 885.02 486.52 C 886.37 479.91, 886.63 476.94, 886.59 473.21 C 886.55 469.48, 885.87 468.29, 884.82 467.87 C 883.77 467.45, 882.61 468.28, 881.34 471.12 C 880.07 473.96, 879.49 476.53, 878.47 482.07 C 877.45 487.60, 876.89 491.48, 876.24 498.81 C 875.59 506.14, 875.24 510.90, 875.21 518.71 C 875.19 526.52, 875.23 531.12, 876.12 537.86 C 877.00 544.61, 877.59 548.05, 879.63 552.46 C 881.67 556.87, 883.07 558.74, 886.30 559.91 C 889.53 561.08, 891.64 560.71, 895.78 558.30 C 899.92 555.89, 902.32 553.44, 907.00 547.88 C 911.67 542.32, 914.49 538.11, 919.13 530.51 C 923.78 522.90, 926.29 517.76, 930.22 509.86 C 934.15 501.96, 935.98 497.28, 938.79 491.00 C 941.59 484.71, 942.80 481.78, 944.25 478.43 C 945.70 475.08, 945.86 474.06, 946.04 474.25 C 946.22 474.44, 945.78 475.64, 945.17 479.41 C 944.57 483.17, 944.06 486.49, 943.02 493.06 C 941.97 499.63, 941.23 504.32, 939.94 512.25 C 938.66 520.18, 937.77 525.24, 936.57 532.71 C 935.37 540.19, 934.52 544.32, 933.95 549.62 C 933.38 554.93, 933.11 557.26, 933.72 559.22 C 934.32 561.18, 935.24 561.39, 936.97 559.43 C 938.70 557.47, 939.69 555.03, 942.38 549.42 C 945.07 543.81, 946.94 539.38, 950.43 531.38 C 953.91 523.39, 956.14 517.84, 959.79 509.45 C 963.44 501.06, 965.50 496.03, 968.68 489.43 C 971.86 482.84, 973.49 479.80, 975.69 476.46 C 977.88 473.12, 978.50 472.43, 979.66 472.73 C 980.81 473.03, 980.85 474.33, 981.46 477.97 C 982.06 481.60, 982.29 484.72, 982.67 490.90 C 983.05 497.07, 983.04 501.44, 983.38 508.86 C 983.71 516.28, 983.67 520.91, 984.34 527.98 C 985.02 535.05, 985.27 538.89, 986.76 544.21 C 988.25 549.53, 989.05 552.06, 991.78 554.59 C 994.52 557.12, 996.41 557.62, 1000.45 556.86 C 1004.48 556.09, 1006.96 554.47, 1011.95 550.76 C 1016.95 547.05, 1019.94 544.01, 1025.41 538.31 C 1030.89 532.62, 1034.07 528.67, 1039.33 522.28 C 1044.59 515.90, 1047.40 512.06, 1051.73 506.41 C 1056.06 500.75, 1058.04 498.02, 1060.99 494.01 C 1063.94 490.00, 1065.22 488.63, 1066.48 486.36 C 1067.75 484.09, 1067.78 483.38, 1067.31 482.65 C 1066.84 481.93, 1066.00 481.89, 1064.15 482.74 C 1062.29 483.59, 1060.93 484.50, 1058.04 486.90 C 1055.15 489.30, 1053.23 490.96, 1049.69 494.75 C 1046.15 498.55, 1043.92 500.91, 1040.34 505.90 C 1036.75 510.88, 1034.72 513.97, 1031.78 519.68 C 1028.83 525.39, 1027.36 528.74, 1025.62 534.45 C 1023.88 540.16, 1023.33 543.28, 1023.08 548.22 C 1022.82 553.16, 1023.07 555.73, 1024.35 559.15 C 1025.63 562.57, 1026.77 564.30, 1029.48 565.31 C 1032.20 566.32, 1034.17 566.26, 1037.93 564.19 C 1041.69 562.13, 1043.94 560.38, 1048.28 554.99 C 1052.62 549.59, 1055.21 545.88, 1059.64 537.24 C 1064.07 528.59, 1066.51 523.05, 1070.42 511.78 C 1074.33 500.50, 1076.26 493.66, 1079.18 480.86 C 1082.09 468.06, 1083.31 460.63, 1085.00 447.77 C 1086.69 434.91, 1087.14 427.90, 1087.64 416.56 C 1088.14 405.22, 1087.93 399.60, 1087.50 391.08 C 1087.06 382.56, 1086.52 378.87, 1085.47 373.96 C 1084.41 369.05, 1083.60 367.42, 1082.22 366.52 C 1080.84 365.62, 1079.75 366.22, 1078.57 369.46 C 1077.38 372.70, 1077.08 375.46, 1076.30 382.70 C 1075.53 389.94, 1075.22 394.88, 1074.68 405.65 C 1074.15 416.42, 1073.91 423.36, 1073.62 436.54 C 1073.33 449.72, 1073.18 457.65, 1073.24 471.53 C 1073.31 485.42, 1073.41 493.14, 1073.95 505.96 C 1074.49 518.78, 1074.84 525.30, 1075.93 535.63 C 1077.03 545.97, 1077.53 550.76, 1079.41 557.62 C 1081.28 564.49, 1082.16 567.25, 1085.31 569.97 C 1088.45 572.69, 1090.98 572.17, 1095.13 571.23 C 1099.28 570.29, 1102.17 567.97, 1106.04 565.27 C 1109.91 562.57, 1112.96 559.42, 1114.48 557.72 C 1116.01 556.02, 1115.52 555.51, 1113.66 556.78 C 1111.80 558.05, 1108.96 561.41, 1105.19 564.06 C 1101.42 566.71, 1098.68 568.99, 1094.83 570.02 C 1090.98 571.05, 1088.88 571.75, 1085.95 569.23 C 1083.02 566.70, 1082.04 564.15, 1080.16 557.41 C 1078.28 550.68, 1077.70 545.86, 1076.56 535.56 C 1075.43 525.27, 1075.06 518.74, 1074.51 505.93 C 1073.96 493.13, 1073.85 485.41, 1073.80 471.53 C 1073.75 457.66, 1073.91 449.72, 1074.24 436.56 C 1074.58 423.39, 1074.86 416.44, 1075.49 405.69 C 1076.11 394.94, 1076.51 389.99, 1077.37 382.82 C 1078.24 375.66, 1078.92 373.02, 1079.81 369.86 C 1080.70 366.71, 1080.89 366.18, 1081.82 367.04 C 1082.76 367.90, 1083.51 369.35, 1084.49 374.17 C 1085.48 378.98, 1086.25 382.65, 1086.76 391.12 C 1087.27 399.59, 1087.50 405.22, 1087.03 416.53 C 1086.57 427.85, 1086.12 434.86, 1084.44 447.70 C 1082.75 460.53, 1081.54 467.95, 1078.61 480.73 C 1075.68 493.50, 1073.73 500.33, 1069.79 511.56 C 1065.85 522.78, 1063.37 528.31, 1058.90 536.85 C 1054.43 545.40, 1051.76 549.07, 1047.43 554.29 C 1043.10 559.51, 1040.74 561.04, 1037.25 562.96 C 1033.77 564.88, 1032.31 564.75, 1030.02 563.88 C 1027.73 563.01, 1026.91 561.74, 1025.79 558.62 C 1024.67 555.50, 1024.21 553.05, 1024.41 548.28 C 1024.61 543.52, 1025.09 540.41, 1026.77 534.80 C 1028.46 529.19, 1029.91 525.85, 1032.84 520.22 C 1035.76 514.60, 1037.79 511.54, 1041.40 506.67 C 1045.00 501.80, 1047.27 499.52, 1050.88 495.90 C 1054.49 492.28, 1056.60 490.91, 1059.43 488.58 C 1062.26 486.25, 1063.54 485.39, 1065.04 484.24 C 1066.54 483.10, 1066.89 482.58, 1066.91 482.85 C 1066.94 483.12, 1066.56 483.48, 1065.18 485.57 C 1063.80 487.66, 1062.85 489.25, 1060.00 493.29 C 1057.15 497.34, 1055.21 500.12, 1050.92 505.80 C 1046.64 511.47, 1043.83 515.31, 1038.58 521.67 C 1033.33 528.02, 1030.12 531.95, 1024.65 537.58 C 1019.18 543.21, 1016.14 546.20, 1011.25 549.81 C 1006.36 553.41, 1003.92 554.83, 1000.20 555.61 C 996.48 556.38, 995.11 556.01, 992.65 553.67 C 990.18 551.33, 989.33 549.05, 987.89 543.89 C 986.44 538.73, 986.10 534.89, 985.44 527.88 C 984.77 520.86, 984.83 516.22, 984.55 508.81 C 984.28 501.40, 984.37 497.04, 984.04 490.82 C 983.71 484.59, 983.75 481.44, 982.91 477.68 C 982.06 473.93, 981.46 472.42, 979.82 472.04 C 978.19 471.66, 977.12 472.40, 974.72 475.80 C 972.31 479.19, 970.95 482.35, 967.79 489.01 C 964.64 495.66, 962.61 500.69, 958.94 509.07 C 955.26 517.46, 952.98 522.99, 949.44 530.95 C 945.89 538.91, 943.92 543.32, 941.23 548.86 C 938.53 554.40, 937.26 556.62, 935.95 558.65 C 934.64 560.69, 934.81 560.81, 934.66 559.03 C 934.50 557.25, 934.59 554.99, 935.18 549.76 C 935.77 544.53, 936.44 540.35, 937.62 532.88 C 938.79 525.41, 939.70 520.35, 941.05 512.43 C 942.39 504.51, 943.21 499.84, 944.33 493.28 C 945.45 486.71, 946.29 483.45, 946.66 479.60 C 947.03 475.74, 946.89 474.36, 946.18 474.02 C 945.47 473.68, 944.78 474.59, 943.12 477.90 C 941.45 481.21, 940.59 484.27, 937.85 490.58 C 935.11 496.90, 933.32 501.57, 929.41 509.46 C 925.51 517.34, 922.97 522.46, 918.32 530.01 C 913.67 537.55, 910.80 541.72, 906.16 547.17 C 901.53 552.62, 899.04 554.93, 895.16 557.24 C 891.27 559.56, 889.62 559.78, 886.73 558.73 C 883.84 557.67, 882.61 556.17, 880.70 551.97 C 878.79 547.77, 878.06 544.37, 877.17 537.72 C 876.28 531.07, 876.20 526.48, 876.25 518.72 C 876.31 510.96, 876.70 506.19, 877.43 498.92 C 878.17 491.65, 878.84 487.79, 879.93 482.35 C 881.03 476.91, 881.97 474.54, 882.91 471.73 C 883.85 468.92, 884.14 468.01, 884.62 468.30 C 885.11 468.59, 885.44 469.59, 885.33 473.20 C 885.22 476.81, 885.32 479.77, 884.06 486.33 C 882.81 492.89, 881.81 497.53, 879.05 506.01 C 876.30 514.49, 874.35 520.01, 870.28 528.74 C 866.20 537.46, 863.48 542.47, 858.68 549.64 C 853.88 556.82, 851.00 560.21, 846.29 564.60 C 841.57 568.99, 839.04 570.52, 835.11 571.59 C 831.18 572.65, 829.42 572.30, 826.64 569.91 C 823.87 567.53, 822.59 565.19, 821.26 559.66 C 819.93 554.13, 819.55 550.05, 819.99 542.25 C 820.43 534.44, 821.15 529.38, 823.48 520.63 C 825.80 511.89, 827.63 506.68, 831.63 498.52 C 835.62 490.36, 838.38 486.10, 843.45 479.82 C 848.52 473.55, 851.71 470.87, 856.98 467.15 C 862.25 463.42, 865.17 462.38, 869.81 461.19 C 874.45 460.00, 876.67 460.36, 880.18 461.18 C 883.69 462.01, 885.18 463.25, 887.36 465.32 C 889.55 467.39, 890.14 469.04, 891.09 471.53 C 892.04 474.03, 891.96 475.57, 892.10 477.79 C 892.24 480.01, 891.99 481.09, 891.80 482.63 C 891.61 484.17, 891.09 484.83, 891.14 485.49 C 891.19 486.14, 891.49 486.36, 892.05 485.89" style="stroke: black; fill: black;"/><path d="M 1303.81,367.74 C 1303.39 368.00, 1303.25 367.46, 1302.23 369.34 C 1301.20 371.21, 1300.76 372.20, 1298.68 377.11 C 1296.60 382.02, 1295.17 385.24, 1291.82 393.90 C 1288.47 402.57, 1286.17 408.38, 1281.93 420.45 C 1277.70 432.51, 1275.08 440.07, 1270.66 454.23 C 1266.23 468.40, 1263.82 476.67, 1259.82 491.28 C 1255.82 505.88, 1253.85 513.97, 1250.66 527.27 C 1247.46 540.58, 1245.94 547.42, 1243.82 557.79 C 1241.71 568.17, 1240.96 572.95, 1240.06 579.14 C 1239.17 585.34, 1238.96 587.77, 1239.34 588.78 C 1239.72 589.79, 1240.27 589.11, 1241.96 584.18 C 1243.65 579.25, 1244.68 574.95, 1247.79 564.14 C 1250.90 553.32, 1253.08 545.72, 1257.49 530.10 C 1261.90 514.48, 1264.91 504.26, 1269.85 486.04 C 1274.79 467.82, 1277.73 457.08, 1282.18 439.00 C 1286.64 420.93, 1288.81 411.27, 1292.13 395.66 C 1295.45 380.04, 1296.75 372.45, 1298.78 360.92 C 1300.82 349.38, 1301.42 344.56, 1302.31 337.98 C 1303.19 331.39, 1303.22 329.34, 1303.22 327.98 C 1303.23 326.63, 1302.60 327.24, 1302.32 331.20 C 1302.04 335.16, 1302.01 338.71, 1301.82 347.80 C 1301.62 356.89, 1301.49 363.17, 1301.35 376.65 C 1301.21 390.14, 1301.13 398.71, 1301.10 415.22 C 1301.07 431.74, 1301.05 441.58, 1301.19 459.23 C 1301.33 476.88, 1301.47 486.70, 1301.79 503.46 C 1302.11 520.23, 1302.37 528.96, 1302.79 543.06 C 1303.21 557.16, 1303.44 563.84, 1303.90 573.97 C 1304.35 584.09, 1304.51 588.54, 1305.06 593.69 C 1305.61 598.84, 1306.07 600.26, 1306.67 599.72 C 1307.26 599.17, 1307.69 596.00, 1308.03 590.95 C 1308.38 585.91, 1308.43 580.86, 1308.41 574.48 C 1308.38 568.11, 1308.26 562.17, 1307.91 559.10 C 1307.56 556.02, 1306.84 556.05, 1306.65 559.13 C 1306.46 562.21, 1306.92 568.14, 1306.94 574.49 C 1306.96 580.84, 1306.85 585.88, 1306.75 590.90 C 1306.65 595.91, 1306.64 599.03, 1306.46 599.57 C 1306.29 600.11, 1306.26 598.74, 1305.87 593.61 C 1305.48 588.49, 1305.02 584.05, 1304.50 573.94 C 1303.98 563.82, 1303.73 557.14, 1303.27 543.04 C 1302.82 528.94, 1302.56 520.22, 1302.23 503.46 C 1301.90 486.69, 1301.75 476.87, 1301.63 459.23 C 1301.50 441.58, 1301.52 431.74, 1301.60 415.22 C 1301.67 398.71, 1301.78 390.14, 1302.00 376.66 C 1302.22 363.18, 1302.42 356.91, 1302.69 347.82 C 1302.97 338.74, 1303.35 335.22, 1303.36 331.24 C 1303.38 327.26, 1303.12 326.59, 1302.76 327.92 C 1302.41 329.25, 1302.48 331.30, 1301.58 337.88 C 1300.68 344.46, 1300.24 349.29, 1298.26 360.83 C 1296.29 372.36, 1295.00 379.95, 1291.71 395.57 C 1288.41 411.18, 1286.24 420.83, 1281.79 438.90 C 1277.33 456.98, 1274.39 467.72, 1269.43 485.93 C 1264.46 504.14, 1261.43 514.35, 1256.96 529.95 C 1252.50 545.55, 1250.26 553.14, 1247.09 563.93 C 1243.91 574.72, 1242.57 578.94, 1241.08 583.90 C 1239.60 588.85, 1239.71 589.63, 1239.67 588.71 C 1239.63 587.78, 1239.92 585.42, 1240.87 579.26 C 1241.82 573.11, 1242.37 568.29, 1244.43 557.91 C 1246.49 547.54, 1247.99 540.70, 1251.16 527.40 C 1254.34 514.09, 1256.30 506.01, 1260.30 491.41 C 1264.31 476.81, 1266.72 468.54, 1271.17 454.39 C 1275.62 440.24, 1278.25 432.70, 1282.56 420.67 C 1286.86 408.64, 1289.19 402.84, 1292.68 394.24 C 1296.17 385.65, 1297.79 382.52, 1300.00 377.69 C 1302.21 372.86, 1302.86 372.01, 1303.73 370.08 C 1304.60 368.16, 1304.32 368.52, 1304.33 368.05 C 1304.35 367.59, 1304.24 367.48, 1303.81 367.74" style="stroke: black; fill: black;"/><path d="M 1292.60,509.20 C 1293.16 509.11, 1293.53 508.61, 1294.75 508.00 C 1295.98 507.39, 1296.64 506.97, 1298.72 506.16 C 1300.81 505.35, 1302.10 504.72, 1305.16 503.96 C 1308.23 503.20, 1310.21 502.92, 1314.06 502.37 C 1317.91 501.82, 1320.19 501.65, 1324.43 501.20 C 1328.67 500.74, 1331.09 500.56, 1335.27 500.11 C 1339.45 499.66, 1341.71 499.38, 1345.33 498.95 C 1348.96 498.51, 1350.69 498.24, 1353.41 497.91 C 1356.13 497.59, 1357.21 497.22, 1358.93 497.32 C 1360.64 497.43, 1361.15 497.36, 1361.99 498.44 C 1362.84 499.52, 1362.80 500.09, 1363.16 502.74 C 1363.52 505.38, 1363.73 507.06, 1363.81 511.66 C 1363.90 516.26, 1363.80 519.29, 1363.59 525.74 C 1363.38 532.19, 1363.13 536.38, 1362.74 543.93 C 1362.35 551.48, 1362.05 556.13, 1361.64 563.49 C 1361.24 570.84, 1361.00 574.94, 1360.73 580.72 C 1360.46 586.49, 1360.13 589.23, 1360.31 592.36 C 1360.48 595.49, 1360.89 596.53, 1361.61 596.38 C 1362.32 596.24, 1362.83 595.34, 1363.88 591.63 C 1364.94 587.92, 1365.36 584.75, 1366.87 577.81 C 1368.38 570.88, 1369.39 565.90, 1371.44 556.95 C 1373.48 548.00, 1374.78 542.16, 1377.10 533.06 C 1379.43 523.96, 1380.77 518.74, 1383.08 511.47 C 1385.38 504.19, 1386.64 500.81, 1388.63 496.67 C 1390.63 492.54, 1391.53 491.42, 1393.04 490.81 C 1394.56 490.19, 1394.94 490.86, 1396.20 493.60 C 1397.46 496.34, 1398.25 498.79, 1399.33 504.49 C 1400.40 510.19, 1400.93 514.39, 1401.57 522.10 C 1402.22 529.81, 1402.36 534.93, 1402.55 543.05 C 1402.73 551.18, 1402.56 556.00, 1402.51 562.73 C 1402.46 569.46, 1402.12 572.77, 1402.31 576.70 C 1402.50 580.63, 1402.66 581.99, 1403.45 582.39 C 1404.25 582.78, 1404.93 581.93, 1406.28 578.66 C 1407.63 575.40, 1408.23 572.41, 1410.19 566.07 C 1412.15 559.72, 1413.49 555.02, 1416.06 546.93 C 1418.63 538.83, 1420.27 533.45, 1423.03 525.60 C 1425.79 517.75, 1427.36 513.33, 1429.86 507.67 C 1432.37 502.01, 1433.73 499.70, 1435.55 497.31 C 1437.36 494.92, 1437.77 494.66, 1438.94 495.73 C 1440.10 496.80, 1440.48 498.42, 1441.37 502.65 C 1442.26 506.88, 1442.69 510.26, 1443.40 516.87 C 1444.11 523.47, 1444.32 527.97, 1444.93 535.68 C 1445.54 543.39, 1445.66 548.11, 1446.45 555.43 C 1447.24 562.74, 1447.50 566.71, 1448.89 572.25 C 1450.28 577.80, 1450.95 580.30, 1453.40 583.16 C 1455.85 586.02, 1457.53 586.79, 1461.15 586.55 C 1464.76 586.31, 1466.96 585.16, 1471.49 581.97 C 1476.02 578.78, 1478.74 576.17, 1483.79 570.60 C 1488.85 565.03, 1491.82 561.15, 1496.76 554.13 C 1501.70 547.11, 1504.33 542.66, 1508.49 535.51 C 1512.66 528.35, 1514.64 524.41, 1517.60 518.36 C 1520.55 512.32, 1521.71 509.52, 1523.26 505.29 C 1524.80 501.06, 1525.22 499.49, 1525.32 497.22 C 1525.43 494.96, 1525.01 494.38, 1523.79 493.97 C 1522.58 493.57, 1521.47 493.75, 1519.26 495.20 C 1517.04 496.65, 1515.63 497.96, 1512.72 501.22 C 1509.80 504.49, 1508.01 506.66, 1504.68 511.53 C 1501.35 516.40, 1499.29 519.47, 1496.09 525.58 C 1492.88 531.69, 1491.05 535.38, 1488.64 542.09 C 1486.23 548.80, 1485.17 552.68, 1484.04 559.14 C 1482.92 565.60, 1482.73 569.04, 1483.01 574.38 C 1483.28 579.72, 1483.78 582.30, 1485.41 585.85 C 1487.03 589.40, 1488.32 591.06, 1491.12 592.14 C 1493.93 593.23, 1495.93 593.14, 1499.45 591.29 C 1502.96 589.44, 1505.02 587.61, 1508.69 582.91 C 1512.36 578.20, 1514.49 574.81, 1517.79 567.77 C 1521.09 560.74, 1522.86 556.01, 1525.18 547.75 C 1527.50 539.49, 1528.43 534.31, 1529.37 526.48 C 1530.31 518.64, 1530.26 514.39, 1529.87 508.58 C 1529.48 502.77, 1528.86 500.18, 1527.43 497.44 C 1526.00 494.70, 1524.54 494.22, 1522.72 494.88 C 1520.89 495.54, 1519.69 497.10, 1518.29 500.73 C 1516.88 504.36, 1516.31 507.31, 1515.70 513.01 C 1515.10 518.71, 1514.95 522.52, 1515.24 529.23 C 1515.54 535.95, 1515.92 540.05, 1517.18 546.57 C 1518.44 553.10, 1519.29 556.70, 1521.55 561.85 C 1523.82 567.00, 1525.25 569.52, 1528.49 572.31 C 1531.74 575.11, 1533.80 576.04, 1537.79 575.81 C 1541.78 575.59, 1544.06 574.52, 1548.45 571.19 C 1552.83 567.86, 1555.36 565.01, 1559.73 559.17 C 1564.11 553.33, 1566.55 549.08, 1570.31 541.98 C 1574.08 534.89, 1575.86 530.33, 1578.57 523.68 C 1581.28 517.04, 1582.37 513.44, 1583.86 508.75 C 1585.36 504.06, 1585.77 502.08, 1586.05 500.22 C 1586.33 498.36, 1585.71 498.13, 1585.27 499.45 C 1584.82 500.77, 1584.40 502.48, 1583.82 506.82 C 1583.24 511.16, 1582.99 514.53, 1582.37 521.17 C 1581.75 527.80, 1581.36 532.32, 1580.71 539.98 C 1580.05 547.63, 1579.60 552.35, 1579.08 559.46 C 1578.56 566.57, 1578.22 570.38, 1578.10 575.52 C 1577.98 580.67, 1577.85 582.92, 1578.48 585.20 C 1579.12 587.47, 1579.83 588.03, 1581.28 586.89 C 1582.73 585.75, 1583.55 584.09, 1585.73 579.49 C 1587.91 574.89, 1589.28 571.22, 1592.20 563.90 C 1595.13 556.57, 1597.01 551.39, 1600.35 542.86 C 1603.68 534.33, 1605.69 528.91, 1608.88 521.23 C 1612.07 513.54, 1613.71 509.53, 1616.30 504.44 C 1618.88 499.35, 1620.11 497.56, 1621.81 495.78 C 1623.50 493.99, 1623.80 494.02, 1624.77 495.50 C 1625.75 496.98, 1626.08 498.74, 1626.69 503.18 C 1627.31 507.62, 1627.52 511.01, 1627.86 517.71 C 1628.19 524.40, 1628.13 528.92, 1628.38 536.65 C 1628.64 544.37, 1628.50 549.12, 1629.14 556.32 C 1629.78 563.52, 1629.99 567.40, 1631.58 572.65 C 1633.17 577.91, 1634.12 580.26, 1637.08 582.59 C 1640.05 584.93, 1642.05 585.31, 1646.41 584.31 C 1650.76 583.32, 1653.46 581.61, 1658.85 577.62 C 1664.25 573.64, 1667.60 570.35, 1673.40 564.37 C 1679.20 558.39, 1682.53 554.34, 1687.87 547.73 C 1693.20 541.12, 1695.92 537.25, 1700.08 531.31 C 1704.25 525.38, 1706.03 522.50, 1708.68 518.07 C 1711.34 513.63, 1712.33 511.99, 1713.35 509.14 C 1714.37 506.30, 1714.33 505.32, 1713.79 503.84 C 1713.26 502.36, 1712.51 501.85, 1710.66 501.76 C 1708.82 501.66, 1707.40 501.85, 1704.56 503.37 C 1701.72 504.88, 1699.96 506.17, 1696.47 509.35 C 1692.98 512.53, 1690.79 514.57, 1687.11 519.27 C 1683.43 523.97, 1681.29 526.92, 1678.07 532.84 C 1674.85 538.77, 1673.22 542.39, 1671.01 548.90 C 1668.80 555.41, 1667.91 559.16, 1667.04 565.38 C 1666.17 571.61, 1666.06 574.95, 1666.66 580.04 C 1667.26 585.12, 1667.87 587.75, 1670.03 590.83 C 1672.18 593.91, 1673.89 595.27, 1677.45 595.44 C 1681.02 595.62, 1683.32 595.01, 1687.85 591.68 C 1692.39 588.36, 1695.08 585.76, 1700.13 578.82 C 1705.18 571.87, 1708.18 567.17, 1713.10 556.95 C 1718.03 546.72, 1720.71 540.27, 1724.75 527.69 C 1728.78 515.12, 1730.64 507.61, 1733.29 494.07 C 1735.93 480.54, 1736.83 472.96, 1737.96 460.01 C 1739.09 447.06, 1739.08 440.25, 1738.93 429.32 C 1738.77 418.40, 1738.15 413.18, 1737.19 405.37 C 1736.23 397.56, 1735.50 394.34, 1734.13 390.27 C 1732.77 386.19, 1731.81 385.03, 1730.38 385.00 C 1728.94 384.97, 1728.10 386.02, 1726.97 390.12 C 1725.85 394.21, 1725.55 397.38, 1724.76 405.47 C 1723.96 413.55, 1723.62 418.97, 1722.98 430.53 C 1722.34 442.09, 1722.01 449.42, 1721.56 463.28 C 1721.12 477.14, 1720.79 485.51, 1720.75 499.84 C 1720.70 514.16, 1720.74 522.11, 1721.33 534.90 C 1721.92 547.68, 1722.31 554.06, 1723.71 563.77 C 1725.11 573.47, 1725.86 577.68, 1728.31 583.43 C 1730.75 589.19, 1732.22 591.08, 1735.94 592.53 C 1739.66 593.98, 1742.03 593.27, 1746.92 590.68 C 1751.81 588.09, 1754.78 585.29, 1760.37 579.59 C 1765.96 573.89, 1769.30 569.61, 1774.86 562.19 C 1780.41 554.78, 1783.44 549.95, 1788.14 542.52 C 1792.83 535.08, 1795.01 531.01, 1798.33 525.02 C 1801.66 519.03, 1802.92 516.45, 1804.77 512.57 C 1806.61 508.68, 1807.14 507.55, 1807.56 505.61 C 1807.98 503.67, 1807.70 503.28, 1806.86 502.86 C 1806.02 502.44, 1805.21 502.54, 1803.34 503.51 C 1801.48 504.48, 1800.27 505.39, 1797.54 507.71 C 1794.80 510.02, 1793.05 511.60, 1789.66 515.08 C 1786.27 518.57, 1784.09 520.68, 1780.58 525.13 C 1777.07 529.58, 1775.05 532.23, 1772.12 537.32 C 1769.19 542.41, 1767.75 545.33, 1765.92 550.58 C 1764.08 555.82, 1763.41 558.70, 1762.96 563.55 C 1762.51 568.40, 1762.64 570.92, 1763.67 574.82 C 1764.70 578.72, 1765.65 580.67, 1768.10 583.06 C 1770.55 585.44, 1772.35 586.49, 1775.92 586.75 C 1779.49 587.00, 1781.77 586.57, 1785.95 584.35 C 1790.12 582.12, 1792.59 580.22, 1796.80 575.62 C 1801.02 571.02, 1803.38 567.76, 1807.01 561.35 C 1810.64 554.94, 1812.50 550.78, 1814.95 543.57 C 1817.40 536.36, 1818.32 532.06, 1819.25 525.32 C 1820.19 518.58, 1820.07 515.01, 1819.60 509.87 C 1819.13 504.73, 1818.45 502.41, 1816.90 499.60 C 1815.34 496.79, 1813.97 495.98, 1811.83 495.83 C 1809.69 495.68, 1808.15 496.40, 1806.20 498.85 C 1804.25 501.30, 1803.36 503.48, 1802.08 508.08 C 1800.79 512.67, 1800.24 515.73, 1799.78 521.82 C 1799.31 527.91, 1799.18 531.67, 1799.73 538.52 C 1800.28 545.36, 1800.78 549.36, 1802.53 556.05 C 1804.28 562.74, 1805.52 566.32, 1808.48 571.96 C 1811.45 577.60, 1813.32 580.29, 1817.33 584.24 C 1821.35 588.19, 1823.82 589.78, 1828.54 591.73 C 1833.27 593.67, 1836.09 594.04, 1840.98 593.98 C 1845.86 593.92, 1848.59 593.15, 1852.97 591.44 C 1857.34 589.74, 1859.56 588.18, 1862.84 585.47 C 1866.12 582.76, 1867.47 580.92, 1869.39 577.92 C 1871.30 574.91, 1871.79 572.99, 1872.41 570.45 C 1873.02 567.91, 1872.68 566.76, 1872.46 565.20 C 1872.23 563.65, 1871.64 563.14, 1871.28 562.67 C 1870.93 562.20, 1870.75 562.33, 1870.69 562.85 C 1870.64 563.37, 1871.08 563.86, 1871.01 565.28 C 1870.94 566.69, 1871.00 567.59, 1870.36 569.92 C 1869.72 572.26, 1869.51 574.07, 1867.80 576.93 C 1866.09 579.80, 1864.88 581.61, 1861.81 584.24 C 1858.73 586.87, 1856.60 588.41, 1852.43 590.09 C 1848.26 591.77, 1845.64 592.55, 1840.96 592.64 C 1836.27 592.74, 1833.57 592.43, 1829.01 590.59 C 1824.44 588.74, 1822.04 587.25, 1818.13 583.43 C 1814.22 579.60, 1812.35 576.99, 1809.44 571.46 C 1806.52 565.93, 1805.28 562.38, 1803.56 555.78 C 1801.85 549.17, 1801.36 545.20, 1800.87 538.43 C 1800.38 531.66, 1800.56 527.91, 1801.11 521.93 C 1801.67 515.96, 1802.35 512.93, 1803.67 508.54 C 1804.99 504.15, 1806.09 502.28, 1807.70 499.98 C 1809.32 497.68, 1810.19 496.97, 1811.76 497.03 C 1813.32 497.10, 1814.22 497.73, 1815.55 500.32 C 1816.87 502.91, 1817.85 505.02, 1818.38 509.99 C 1818.91 514.96, 1819.09 518.52, 1818.21 525.18 C 1817.33 531.83, 1816.42 536.12, 1813.99 543.25 C 1811.57 550.37, 1809.69 554.51, 1806.07 560.81 C 1802.45 567.12, 1800.05 570.33, 1795.89 574.77 C 1791.73 579.22, 1789.23 580.98, 1785.26 583.04 C 1781.29 585.11, 1779.24 585.33, 1776.04 585.10 C 1772.84 584.86, 1771.44 583.99, 1769.27 581.86 C 1767.09 579.73, 1766.14 578.07, 1765.15 574.43 C 1764.16 570.79, 1763.92 568.36, 1764.32 563.67 C 1764.71 558.99, 1765.34 556.14, 1767.12 551.00 C 1768.90 545.85, 1770.32 542.96, 1773.23 537.96 C 1776.14 532.97, 1778.15 530.34, 1781.68 526.01 C 1785.21 521.68, 1787.41 519.62, 1790.88 516.32 C 1794.35 513.01, 1796.32 511.72, 1799.03 509.50 C 1801.74 507.27, 1802.90 506.42, 1804.43 505.20 C 1805.96 503.99, 1806.28 503.40, 1806.67 503.42 C 1807.05 503.43, 1806.98 503.55, 1806.37 505.27 C 1805.77 507.00, 1805.40 508.18, 1803.62 512.03 C 1801.84 515.89, 1800.73 518.55, 1797.48 524.56 C 1794.24 530.56, 1792.07 534.63, 1787.40 542.05 C 1782.73 549.47, 1779.68 554.28, 1774.13 561.65 C 1768.59 569.02, 1765.20 573.27, 1759.66 578.90 C 1754.12 584.52, 1751.10 587.22, 1746.43 589.77 C 1741.75 592.31, 1739.76 592.96, 1736.29 591.63 C 1732.81 590.30, 1731.43 588.71, 1729.05 583.12 C 1726.66 577.53, 1725.78 573.32, 1724.35 563.67 C 1722.92 554.02, 1722.50 547.64, 1721.88 534.87 C 1721.27 522.10, 1721.23 514.15, 1721.28 499.84 C 1721.34 485.52, 1721.67 477.15, 1722.15 463.30 C 1722.64 449.45, 1723.00 442.12, 1723.72 430.57 C 1724.44 419.03, 1724.86 413.60, 1725.75 405.57 C 1726.65 397.54, 1727.27 394.43, 1728.20 390.43 C 1729.12 386.42, 1729.37 385.52, 1730.36 385.55 C 1731.35 385.58, 1731.93 386.60, 1733.14 390.58 C 1734.35 394.57, 1735.39 397.72, 1736.42 405.47 C 1737.46 413.22, 1738.12 418.44, 1738.31 429.33 C 1738.51 440.23, 1738.53 447.03, 1737.41 459.96 C 1736.30 472.89, 1735.40 480.46, 1732.75 493.97 C 1730.10 507.48, 1728.24 514.98, 1724.18 527.51 C 1720.12 540.05, 1717.42 546.48, 1712.46 556.64 C 1707.50 566.79, 1704.45 571.46, 1699.39 578.28 C 1694.33 585.09, 1691.54 587.58, 1687.16 590.74 C 1682.79 593.89, 1680.71 594.21, 1677.52 594.07 C 1674.32 593.93, 1673.10 592.87, 1671.18 590.04 C 1669.25 587.20, 1668.51 584.79, 1667.91 579.88 C 1667.30 574.98, 1667.32 571.66, 1668.15 565.54 C 1668.98 559.41, 1669.85 555.68, 1672.04 549.25 C 1674.23 542.82, 1675.86 539.23, 1679.09 533.40 C 1682.31 527.57, 1684.46 524.66, 1688.17 520.11 C 1691.88 515.57, 1694.13 513.62, 1697.63 510.67 C 1701.13 507.72, 1703.05 506.86, 1705.67 505.38 C 1708.29 503.89, 1709.30 503.49, 1710.73 503.24 C 1712.16 503.00, 1712.58 503.06, 1712.81 504.13 C 1713.04 505.20, 1712.90 505.93, 1711.87 508.59 C 1710.84 511.26, 1710.19 513.05, 1707.68 517.48 C 1705.16 521.91, 1703.39 524.83, 1699.28 530.76 C 1695.18 536.69, 1692.46 540.56, 1687.14 547.14 C 1681.82 553.73, 1678.47 557.76, 1672.68 563.67 C 1666.89 569.59, 1663.50 572.82, 1658.18 576.71 C 1652.87 580.60, 1650.19 582.14, 1646.13 583.12 C 1642.06 584.11, 1640.53 583.80, 1637.84 581.64 C 1635.15 579.48, 1634.20 577.41, 1632.67 572.32 C 1631.14 567.24, 1630.84 563.36, 1630.20 556.22 C 1629.56 549.08, 1629.69 544.33, 1629.48 536.61 C 1629.27 528.90, 1629.42 524.38, 1629.16 517.65 C 1628.91 510.92, 1628.91 507.52, 1628.20 502.96 C 1627.49 498.39, 1627.07 496.45, 1625.62 494.83 C 1624.17 493.22, 1623.01 493.06, 1620.95 494.88 C 1618.89 496.71, 1617.91 498.75, 1615.33 503.95 C 1612.74 509.15, 1611.19 513.16, 1608.02 520.87 C 1604.85 528.58, 1602.84 533.99, 1599.46 542.51 C 1596.08 551.03, 1594.13 556.18, 1591.13 563.46 C 1588.12 570.73, 1586.54 574.33, 1584.44 578.88 C 1582.33 583.43, 1581.56 584.99, 1580.61 586.20 C 1579.66 587.42, 1579.93 587.09, 1579.68 584.96 C 1579.44 582.82, 1579.29 580.63, 1579.38 575.55 C 1579.48 570.47, 1579.68 566.63, 1580.16 559.54 C 1580.65 552.44, 1581.10 547.72, 1581.82 540.08 C 1582.54 532.43, 1583.02 527.92, 1583.76 521.31 C 1584.50 514.70, 1585.03 511.37, 1585.51 507.02 C 1585.99 502.67, 1586.26 500.98, 1586.15 499.56 C 1586.05 498.15, 1585.71 498.18, 1585.01 499.94 C 1584.30 501.69, 1584.10 503.68, 1582.62 508.35 C 1581.14 513.03, 1580.24 516.66, 1577.59 523.29 C 1574.95 529.92, 1573.16 534.46, 1569.41 541.50 C 1565.66 548.55, 1563.19 552.77, 1558.85 558.51 C 1554.51 564.25, 1551.93 567.01, 1547.70 570.21 C 1543.48 573.41, 1541.39 574.28, 1537.71 574.50 C 1534.04 574.73, 1532.35 573.97, 1529.34 571.34 C 1526.33 568.71, 1524.86 566.36, 1522.65 561.37 C 1520.45 556.37, 1519.55 552.79, 1518.31 546.35 C 1517.08 539.92, 1516.71 535.82, 1516.49 529.19 C 1516.26 522.55, 1516.51 518.76, 1517.19 513.18 C 1517.86 507.60, 1518.67 504.78, 1519.86 501.30 C 1521.04 497.82, 1521.83 496.43, 1523.10 495.77 C 1524.36 495.12, 1525.05 495.46, 1526.19 498.04 C 1527.32 500.62, 1528.31 502.99, 1528.76 508.66 C 1529.20 514.32, 1529.32 518.60, 1528.42 526.37 C 1527.53 534.13, 1526.59 539.30, 1524.27 547.49 C 1521.95 555.69, 1520.15 560.40, 1516.83 567.32 C 1513.51 574.24, 1511.30 577.58, 1507.68 582.11 C 1504.07 586.64, 1501.94 588.25, 1498.74 589.96 C 1495.54 591.68, 1494.10 591.63, 1491.69 590.68 C 1489.28 589.74, 1488.20 588.53, 1486.71 585.26 C 1485.21 581.98, 1484.54 579.50, 1484.22 574.31 C 1483.90 569.13, 1484.03 565.70, 1485.11 559.33 C 1486.20 552.95, 1487.24 549.09, 1489.64 542.45 C 1492.04 535.81, 1493.87 532.14, 1497.11 526.12 C 1500.35 520.10, 1502.44 517.07, 1505.84 512.34 C 1509.24 507.62, 1511.18 505.59, 1514.11 502.50 C 1517.04 499.41, 1518.59 498.45, 1520.50 496.89 C 1522.40 495.34, 1522.92 494.69, 1523.62 494.73 C 1524.31 494.77, 1524.30 495.07, 1523.99 497.09 C 1523.67 499.12, 1523.51 500.69, 1522.05 504.86 C 1520.59 509.03, 1519.56 511.89, 1516.69 517.92 C 1513.82 523.96, 1511.84 527.91, 1507.70 535.05 C 1503.56 542.18, 1500.92 546.61, 1495.98 553.58 C 1491.04 560.54, 1488.03 564.39, 1482.99 569.87 C 1477.95 575.34, 1475.15 577.87, 1470.77 580.94 C 1466.38 584.01, 1464.33 584.94, 1461.05 585.22 C 1457.77 585.50, 1456.58 584.98, 1454.37 582.33 C 1452.16 579.69, 1451.37 577.38, 1449.99 571.97 C 1448.61 566.57, 1448.28 562.59, 1447.49 555.31 C 1446.70 548.04, 1446.59 543.31, 1446.03 535.60 C 1445.47 527.88, 1445.34 523.39, 1444.70 516.73 C 1444.06 510.08, 1443.85 506.67, 1442.82 502.32 C 1441.78 497.97, 1441.18 496.15, 1439.53 494.98 C 1437.87 493.82, 1436.67 494.04, 1434.54 496.49 C 1432.41 498.94, 1431.35 501.48, 1428.86 507.23 C 1426.37 512.99, 1424.86 517.40, 1422.10 525.27 C 1419.33 533.15, 1417.66 538.52, 1415.03 546.60 C 1412.40 554.68, 1410.98 559.37, 1408.95 565.68 C 1406.92 571.99, 1405.94 574.86, 1404.88 578.15 C 1403.81 581.43, 1403.89 582.40, 1403.64 582.11 C 1403.39 581.81, 1403.64 580.54, 1403.63 576.67 C 1403.62 572.79, 1403.62 569.46, 1403.61 562.73 C 1403.59 556.00, 1403.74 551.17, 1403.56 543.03 C 1403.38 534.88, 1403.29 529.77, 1402.71 522.01 C 1402.13 514.26, 1401.70 510.06, 1400.66 504.25 C 1399.62 498.43, 1399.10 495.79, 1397.52 492.93 C 1395.93 490.07, 1394.71 489.30, 1392.73 489.95 C 1390.75 490.60, 1389.73 491.93, 1387.62 496.18 C 1385.51 500.42, 1384.46 503.85, 1382.19 511.19 C 1379.92 518.52, 1378.60 523.74, 1376.26 532.85 C 1373.92 541.95, 1372.61 547.79, 1370.49 556.73 C 1368.37 565.67, 1367.28 570.64, 1365.66 577.54 C 1364.05 584.45, 1363.24 587.54, 1362.41 591.26 C 1361.58 594.98, 1361.62 595.92, 1361.50 596.14 C 1361.38 596.36, 1361.70 595.41, 1361.79 592.34 C 1361.88 589.26, 1361.76 586.52, 1361.94 580.76 C 1362.12 575.00, 1362.32 570.90, 1362.70 563.54 C 1363.08 556.19, 1363.40 551.54, 1363.83 543.99 C 1364.27 536.44, 1364.55 532.26, 1364.88 525.79 C 1365.22 519.33, 1365.41 516.35, 1365.51 511.67 C 1365.61 506.99, 1365.85 505.25, 1365.38 502.40 C 1364.91 499.55, 1364.41 498.80, 1363.16 497.43 C 1361.91 496.07, 1361.13 495.93, 1359.13 495.59 C 1357.13 495.26, 1355.97 495.44, 1353.16 495.74 C 1350.35 496.04, 1348.70 496.56, 1345.08 497.08 C 1341.47 497.61, 1339.25 497.90, 1335.08 498.37 C 1330.92 498.83, 1328.51 499.01, 1324.25 499.41 C 1320.00 499.81, 1317.74 499.94, 1313.81 500.36 C 1309.88 500.78, 1307.84 500.84, 1304.61 501.50 C 1301.39 502.15, 1299.89 502.68, 1297.68 503.64 C 1295.48 504.59, 1294.75 505.31, 1293.60 506.28 C 1292.45 507.25, 1292.16 507.90, 1291.95 508.49 C 1291.75 509.08, 1292.04 509.30, 1292.60 509.20" style="stroke: black; fill: black;"/></svg>