<svg xmlns="http://www.w3.org/2000/svg" id="canvas" viewBox="325.639 410.004 1560.487 175.654"><path d="M 341.34,443.70 C 340.92 444.75, 340.64 446.12, 340.18 449.10 C 339.72 452.07, 339.62 454.08, 339.06 458.56 C 338.51 463.05, 338.19 466.02, 337.41 471.54 C 336.64 477.06, 336.14 480.22, 335.19 486.15 C 334.25 492.09, 333.62 495.35, 332.68 501.22 C 331.74 507.08, 331.23 510.17, 330.51 515.46 C 329.79 520.75, 329.43 523.42, 329.08 527.65 C 328.72 531.88, 328.49 533.84, 328.75 536.59 C 329.00 539.33, 329.74 540.11, 330.35 541.37 C 330.97 542.62, 331.46 542.62, 331.83 542.87 C 332.20 543.12, 332.28 542.99, 332.20 542.61 C 332.12 542.23, 331.75 542.20, 331.45 540.96 C 331.14 539.73, 330.86 539.08, 330.69 536.44 C 330.53 533.79, 330.39 531.92, 330.61 527.75 C 330.83 523.59, 331.15 520.90, 331.80 515.63 C 332.46 510.36, 332.96 507.26, 333.89 501.41 C 334.82 495.55, 335.46 492.29, 336.45 486.36 C 337.45 480.43, 337.99 477.27, 338.86 471.76 C 339.74 466.25, 340.14 463.28, 340.81 458.80 C 341.47 454.32, 341.89 452.35, 342.19 449.35 C 342.50 446.35, 342.49 444.94, 342.32 443.81 C 342.15 442.68, 341.77 442.64, 341.34 443.70" style="stroke: black; fill: black;"/><path d="M 404.29,446.48 C 403.77 446.58, 403.53 446.73, 402.22 447.57 C 400.92 448.42, 400.02 448.89, 397.77 450.72 C 395.51 452.54, 394.21 453.92, 390.93 456.68 C 387.66 459.45, 385.55 461.22, 381.38 464.56 C 377.21 467.90, 374.62 469.87, 370.08 473.38 C 365.53 476.90, 362.92 478.81, 358.65 482.15 C 354.39 485.48, 352.12 487.19, 348.74 490.05 C 345.36 492.92, 343.68 494.14, 341.76 496.46 C 339.85 498.79, 339.29 499.87, 339.17 501.67 C 339.05 503.48, 339.48 504.32, 341.17 505.49 C 342.85 506.67, 344.28 507.14, 347.59 507.55 C 350.90 507.96, 353.12 507.79, 357.72 507.56 C 362.33 507.33, 365.14 506.97, 370.62 506.40 C 376.10 505.84, 379.27 505.45, 385.11 504.73 C 390.95 504.02, 394.15 503.57, 399.82 502.83 C 405.49 502.09, 408.41 501.65, 413.46 501.05 C 418.51 500.44, 421.12 500.23, 425.07 499.80 C 429.02 499.37, 430.67 499.32, 433.21 498.89 C 435.75 498.47, 436.87 498.05, 437.76 497.67 C 438.65 497.29, 438.60 497.06, 437.65 496.98 C 436.69 496.90, 435.55 497.03, 433.00 497.27 C 430.45 497.52, 428.83 497.72, 424.89 498.21 C 420.94 498.69, 418.34 499.03, 413.29 499.70 C 408.25 500.38, 405.32 500.83, 399.65 501.58 C 393.99 502.33, 390.79 502.77, 384.96 503.45 C 379.13 504.12, 375.94 504.49, 370.48 504.95 C 365.02 505.42, 362.19 505.68, 357.66 505.75 C 353.13 505.83, 350.98 505.66, 347.85 505.33 C 344.72 505.00, 343.48 504.80, 341.99 504.10 C 340.51 503.39, 340.19 503.10, 340.43 501.82 C 340.67 500.54, 341.34 499.81, 343.20 497.68 C 345.06 495.56, 346.48 494.10, 349.74 491.20 C 353.00 488.31, 355.26 486.56, 359.49 483.21 C 363.72 479.86, 366.34 477.95, 370.91 474.46 C 375.47 470.97, 378.08 469.02, 382.33 465.77 C 386.58 462.52, 388.73 460.80, 392.16 458.21 C 395.59 455.63, 397.20 454.65, 399.47 452.82 C 401.73 451.00, 402.41 450.24, 403.49 449.09 C 404.57 447.95, 404.69 447.63, 404.85 447.11 C 405.01 446.59, 404.82 446.39, 404.29 446.48" style="stroke: black; fill: black;"/><path d="M 437.25,481.92 C 437.02 482.57, 436.92 483.45, 437.08 485.02 C 437.23 486.59, 437.34 487.71, 438.02 489.77 C 438.70 491.83, 439.16 493.24, 440.48 495.32 C 441.80 497.39, 442.69 498.50, 444.63 500.16 C 446.58 501.82, 447.74 502.58, 450.19 503.64 C 452.65 504.69, 454.05 505.11, 456.89 505.42 C 459.72 505.73, 461.34 505.70, 464.36 505.19 C 467.39 504.68, 469.04 504.12, 472.00 502.86 C 474.97 501.61, 476.48 500.68, 479.20 498.91 C 481.91 497.14, 483.33 496.00, 485.56 494.01 C 487.79 492.02, 488.89 490.76, 490.35 488.96 C 491.80 487.16, 492.32 486.15, 492.86 484.99 C 493.39 483.83, 493.30 483.26, 493.04 483.15 C 492.78 483.05, 492.23 483.21, 491.57 484.47 C 490.91 485.74, 490.30 486.83, 489.75 489.47 C 489.20 492.11, 489.10 493.92, 488.83 497.65 C 488.55 501.39, 488.42 503.70, 488.35 508.16 C 488.29 512.63, 488.31 515.16, 488.51 519.97 C 488.71 524.78, 488.93 527.34, 489.36 532.21 C 489.80 537.08, 490.16 539.65, 490.68 544.32 C 491.20 548.99, 491.56 551.39, 491.96 555.58 C 492.36 559.78, 492.57 561.82, 492.66 565.29 C 492.75 568.75, 492.70 570.36, 492.41 572.91 C 492.13 575.46, 491.92 576.51, 491.24 578.02 C 490.57 579.54, 490.09 579.99, 489.03 580.47 C 487.96 580.95, 487.29 580.91, 485.91 580.44 C 484.52 579.96, 483.65 579.44, 482.09 578.08 C 480.54 576.72, 479.59 575.76, 478.11 573.62 C 476.63 571.48, 475.74 570.17, 474.69 567.38 C 473.64 564.58, 473.13 562.96, 472.84 559.64 C 472.56 556.32, 472.59 554.50, 473.26 550.78 C 473.93 547.06, 474.51 545.04, 476.19 541.04 C 477.87 537.03, 478.99 534.88, 481.67 530.77 C 484.35 526.65, 486.05 524.48, 489.59 520.46 C 493.13 516.44, 495.24 514.46, 499.37 510.67 C 503.50 506.88, 505.82 504.99, 510.26 501.53 C 514.70 498.07, 517.12 496.42, 521.56 493.37 C 526.01 490.32, 528.34 488.91, 532.49 486.27 C 536.64 483.64, 538.67 482.41, 542.30 480.21 C 545.93 478.01, 547.70 477.07, 550.63 475.28 C 553.56 473.49, 554.91 472.75, 556.96 471.26 C 559.01 469.78, 559.78 469.06, 560.87 467.86 C 561.97 466.66, 562.24 465.87, 562.45 465.26 C 562.66 464.66, 562.44 464.54, 561.91 464.83 C 561.39 465.12, 561.06 465.78, 559.83 466.73 C 558.60 467.68, 557.79 468.16, 555.76 469.56 C 553.72 470.97, 552.51 471.87, 549.66 473.74 C 546.81 475.61, 545.07 476.63, 541.49 478.91 C 537.91 481.18, 535.89 482.44, 531.75 485.12 C 527.62 487.81, 525.29 489.23, 520.84 492.32 C 516.39 495.40, 513.96 497.06, 509.49 500.54 C 505.02 504.03, 502.69 505.92, 498.51 509.73 C 494.33 513.53, 492.20 515.52, 488.59 519.57 C 484.97 523.62, 483.23 525.79, 480.45 529.96 C 477.67 534.13, 476.50 536.30, 474.70 540.40 C 472.91 544.49, 472.26 546.56, 471.48 550.44 C 470.69 554.32, 470.60 556.24, 470.79 559.79 C 470.99 563.33, 471.45 565.09, 472.46 568.16 C 473.48 571.23, 474.27 572.76, 475.87 575.14 C 477.47 577.53, 478.56 578.62, 480.46 580.08 C 482.36 581.54, 483.52 582.07, 485.38 582.45 C 487.23 582.83, 488.24 582.70, 489.73 581.98 C 491.23 581.25, 491.91 580.60, 492.87 578.83 C 493.82 577.07, 494.18 575.87, 494.51 573.15 C 494.83 570.43, 494.68 568.76, 494.49 565.21 C 494.30 561.67, 494.02 559.63, 493.55 555.42 C 493.08 551.21, 492.70 548.82, 492.16 544.15 C 491.61 539.48, 491.25 536.93, 490.83 532.09 C 490.41 527.24, 490.21 524.69, 490.07 519.91 C 489.93 515.14, 489.93 512.62, 490.14 508.22 C 490.35 503.81, 490.60 501.53, 491.11 497.90 C 491.61 494.26, 492.20 492.62, 492.68 490.04 C 493.15 487.47, 493.39 486.41, 493.48 485.01 C 493.57 483.61, 493.51 483.24, 493.11 483.04 C 492.71 482.85, 492.40 483.14, 491.49 484.01 C 490.57 484.88, 490.05 485.76, 488.53 487.39 C 487.02 489.03, 486.04 490.27, 483.92 492.19 C 481.81 494.12, 480.50 495.30, 477.94 497.01 C 475.38 498.73, 473.91 499.59, 471.12 500.75 C 468.32 501.91, 466.77 502.38, 463.98 502.82 C 461.18 503.27, 459.72 503.25, 457.16 502.97 C 454.59 502.69, 453.33 502.35, 451.15 501.41 C 448.98 500.47, 447.95 499.78, 446.29 498.28 C 444.63 496.77, 443.97 495.75, 442.85 493.86 C 441.73 491.97, 441.40 490.69, 440.69 488.82 C 439.98 486.96, 439.78 485.95, 439.30 484.54 C 438.81 483.13, 438.67 482.29, 438.27 481.77 C 437.86 481.25, 437.49 481.27, 437.25 481.92" style="stroke: black; fill: black;"/><path d="M 558.25,441.89 C 557.94 442.31, 557.96 442.77, 557.67 443.99 C 557.37 445.21, 557.05 445.83, 556.75 448.00 C 556.45 450.17, 556.34 451.76, 556.15 454.84 C 555.96 457.91, 555.87 459.78, 555.79 463.39 C 555.71 466.99, 555.57 469.08, 555.73 472.84 C 555.89 476.61, 555.95 478.65, 556.60 482.20 C 557.25 485.75, 557.64 487.56, 558.99 490.59 C 560.33 493.62, 561.16 495.09, 563.32 497.34 C 565.49 499.59, 566.84 500.57, 569.80 501.85 C 572.76 503.12, 574.55 503.51, 578.13 503.73 C 581.70 503.95, 583.75 503.72, 587.69 502.93 C 591.63 502.14, 593.80 501.41, 597.82 499.80 C 601.83 498.19, 604.03 497.06, 607.74 494.88 C 611.46 492.70, 613.39 491.31, 616.40 488.91 C 619.40 486.50, 620.89 485.18, 622.76 482.86 C 624.63 480.54, 625.27 479.24, 625.75 477.31 C 626.22 475.38, 626.01 474.46, 625.14 473.21 C 624.27 471.96, 623.32 471.37, 621.40 471.06 C 619.48 470.75, 617.98 470.86, 615.55 471.68 C 613.12 472.50, 611.57 473.34, 609.25 475.15 C 606.93 476.96, 605.60 478.23, 603.95 480.70 C 602.31 483.18, 601.50 484.74, 601.03 487.51 C 600.56 490.28, 600.55 491.92, 601.62 494.55 C 602.70 497.18, 603.67 498.56, 606.42 500.65 C 609.16 502.74, 611.10 503.64, 615.35 505.02 C 619.61 506.40, 622.29 506.88, 627.69 507.54 C 633.09 508.20, 636.29 508.29, 642.35 508.33 C 648.42 508.37, 651.84 508.16, 658.02 507.73 C 664.20 507.29, 667.54 506.86, 673.25 506.15 C 678.95 505.45, 681.86 504.99, 686.54 504.21 C 691.22 503.44, 693.44 503.06, 696.66 502.30 C 699.88 501.53, 701.47 500.91, 702.62 500.38 C 703.78 499.85, 703.69 499.55, 702.43 499.64 C 701.18 499.73, 699.56 500.18, 696.34 500.82 C 693.11 501.46, 690.95 502.01, 686.30 502.83 C 681.65 503.65, 678.76 504.19, 673.09 504.93 C 667.42 505.67, 664.08 506.10, 657.94 506.53 C 651.79 506.96, 648.38 507.15, 642.36 507.07 C 636.35 506.99, 633.17 506.85, 627.87 506.12 C 622.58 505.39, 619.94 504.82, 615.89 503.41 C 611.85 502.00, 610.10 501.00, 607.64 499.07 C 605.18 497.14, 604.47 495.98, 603.60 493.76 C 602.72 491.53, 602.77 490.25, 603.27 487.94 C 603.77 485.62, 604.54 484.29, 606.09 482.19 C 607.63 480.08, 608.90 478.98, 610.98 477.39 C 613.07 475.81, 614.46 475.11, 616.51 474.26 C 618.56 473.41, 619.74 473.18, 621.24 473.13 C 622.74 473.09, 623.44 473.29, 624.02 474.03 C 624.60 474.76, 624.70 475.32, 624.12 476.81 C 623.53 478.30, 622.86 479.35, 621.08 481.48 C 619.30 483.62, 618.07 485.10, 615.23 487.48 C 612.39 489.86, 610.48 491.26, 606.87 493.40 C 603.26 495.54, 601.08 496.65, 597.18 498.19 C 593.27 499.74, 591.12 500.41, 587.34 501.12 C 583.55 501.84, 581.60 501.99, 578.26 501.75 C 574.91 501.52, 573.31 501.11, 570.63 499.94 C 567.94 498.77, 566.78 497.93, 564.82 495.90 C 562.86 493.87, 562.09 492.58, 560.83 489.77 C 559.57 486.96, 559.16 485.24, 558.54 481.84 C 557.92 478.44, 557.84 476.44, 557.74 472.77 C 557.64 469.10, 557.80 467.03, 558.03 463.48 C 558.26 459.94, 558.59 458.10, 558.89 455.06 C 559.19 452.02, 559.38 450.47, 559.53 448.29 C 559.69 446.12, 559.72 445.45, 559.66 444.18 C 559.59 442.90, 559.47 442.37, 559.19 441.92 C 558.91 441.46, 558.55 441.47, 558.25 441.89" style="stroke: black; fill: black;"/><path d="M 844.77,480.70 C 844.69 480.03, 844.40 479.16, 843.54 477.95 C 842.68 476.74, 842.07 475.90, 840.48 474.64 C 838.89 473.39, 837.83 472.54, 835.59 471.68 C 833.34 470.82, 832.08 470.49, 829.26 470.35 C 826.44 470.20, 824.79 470.27, 821.48 470.97 C 818.17 471.67, 816.21 472.29, 812.72 473.83 C 809.23 475.37, 807.26 476.48, 804.03 478.68 C 800.80 480.88, 799.08 482.26, 796.58 484.84 C 794.08 487.41, 792.81 488.90, 791.54 491.56 C 790.27 494.23, 790.00 495.78, 790.21 498.17 C 790.42 500.55, 790.99 501.82, 792.60 503.49 C 794.21 505.16, 795.50 505.85, 798.25 506.52 C 801.00 507.20, 802.84 507.19, 806.35 506.87 C 809.85 506.56, 811.96 506.25, 815.78 504.94 C 819.60 503.64, 823.64 501.53, 825.46 500.36 C 827.29 499.18, 826.96 498.55, 824.90 499.08 C 822.84 499.61, 818.91 501.89, 815.16 503.01 C 811.41 504.13, 809.44 504.43, 806.17 504.67 C 802.89 504.92, 801.22 504.73, 798.78 504.22 C 796.33 503.71, 795.28 503.36, 793.94 502.13 C 792.60 500.89, 792.18 499.96, 792.10 498.04 C 792.01 496.12, 792.34 494.90, 793.52 492.53 C 794.71 490.17, 795.71 488.67, 798.03 486.23 C 800.35 483.78, 802.03 482.40, 805.13 480.29 C 808.23 478.19, 810.17 477.12, 813.53 475.70 C 816.89 474.28, 818.80 473.76, 821.92 473.19 C 825.03 472.63, 826.56 472.70, 829.10 472.89 C 831.64 473.08, 832.68 473.35, 834.62 474.14 C 836.57 474.93, 837.38 475.75, 838.83 476.82 C 840.27 477.88, 840.84 478.55, 841.86 479.44 C 842.87 480.34, 843.33 481.05, 843.92 481.30 C 844.50 481.55, 844.84 481.37, 844.77 480.70" style="stroke: black; fill: black;"/><path d="M 832.62,467.88 C 832.28 468.08, 831.98 468.17, 831.68 469.10 C 831.38 470.04, 831.14 470.72, 831.13 472.55 C 831.13 474.38, 831.21 475.73, 831.66 478.24 C 832.11 480.76, 832.48 482.41, 833.39 485.13 C 834.30 487.85, 834.84 489.40, 836.21 491.84 C 837.59 494.28, 838.40 495.48, 840.27 497.33 C 842.14 499.18, 843.23 500.03, 845.57 501.09 C 847.91 502.15, 849.30 502.51, 851.97 502.63 C 854.65 502.75, 856.15 502.53, 858.93 501.68 C 861.71 500.82, 863.18 500.03, 865.85 498.35 C 868.52 496.66, 869.88 495.46, 872.28 493.24 C 874.67 491.02, 875.84 489.60, 877.82 487.27 C 879.79 484.93, 880.79 483.56, 882.16 481.58 C 883.53 479.59, 883.97 478.48, 884.66 477.35 C 885.35 476.22, 885.31 475.88, 885.61 475.95 C 885.91 476.02, 885.85 476.51, 886.15 477.71 C 886.45 478.90, 886.46 480.04, 887.13 481.93 C 887.80 483.83, 888.31 485.22, 889.50 487.19 C 890.68 489.17, 891.40 490.22, 893.07 491.81 C 894.73 493.41, 895.69 494.20, 897.83 495.18 C 899.96 496.16, 901.19 496.50, 903.75 496.71 C 906.31 496.92, 907.78 496.77, 910.63 496.24 C 913.48 495.70, 915.02 495.11, 918.00 494.03 C 920.99 492.96, 922.62 492.15, 925.55 490.87 C 928.49 489.60, 930.05 488.82, 932.68 487.64 C 935.31 486.47, 936.63 485.70, 938.70 485.00 C 940.77 484.30, 941.59 484.05, 943.01 484.16 C 944.43 484.26, 944.82 484.64, 945.79 485.53 C 946.76 486.42, 947.01 487.14, 947.87 488.59 C 948.73 490.04, 949.00 491.09, 950.09 492.77 C 951.18 494.44, 951.77 495.45, 953.32 496.96 C 954.87 498.47, 955.78 499.19, 957.85 500.31 C 959.92 501.43, 961.09 502.13, 963.66 502.56 C 966.23 502.98, 969.27 502.74, 970.70 502.43 C 972.12 502.13, 972.10 501.54, 970.80 501.04 C 969.49 500.55, 966.55 500.52, 964.19 499.94 C 961.83 499.37, 960.81 499.13, 958.99 498.18 C 957.16 497.23, 956.43 496.56, 955.08 495.19 C 953.74 493.82, 953.32 492.91, 952.28 491.33 C 951.23 489.75, 950.92 488.73, 949.86 487.27 C 948.80 485.82, 948.32 485.04, 946.99 484.06 C 945.66 483.07, 944.99 482.58, 943.21 482.34 C 941.42 482.10, 940.36 482.24, 938.06 482.85 C 935.75 483.47, 934.37 484.23, 931.69 485.41 C 929.00 486.58, 927.51 487.47, 924.62 488.75 C 921.72 490.02, 920.10 490.78, 917.21 491.78 C 914.31 492.77, 912.81 493.21, 910.15 493.72 C 907.49 494.22, 906.18 494.44, 903.91 494.31 C 901.64 494.18, 900.62 493.93, 898.80 493.09 C 896.98 492.24, 896.18 491.54, 894.83 490.08 C 893.47 488.61, 893.00 487.62, 892.03 485.77 C 891.06 483.91, 890.77 482.59, 889.97 480.80 C 889.17 479.01, 888.85 477.95, 888.01 476.80 C 887.16 475.64, 886.68 475.15, 885.74 475.04 C 884.81 474.92, 884.43 475.21, 883.32 476.23 C 882.21 477.25, 881.66 478.24, 880.19 480.14 C 878.72 482.04, 877.87 483.43, 875.97 485.72 C 874.07 488.00, 872.98 489.43, 870.71 491.55 C 868.43 493.68, 867.10 494.79, 864.60 496.34 C 862.09 497.90, 860.70 498.53, 858.20 499.32 C 855.69 500.11, 854.39 500.35, 852.06 500.30 C 849.72 500.24, 848.53 499.95, 846.50 499.03 C 844.48 498.11, 843.53 497.38, 841.92 495.71 C 840.31 494.03, 839.62 492.92, 838.46 490.63 C 837.31 488.35, 836.90 486.85, 836.16 484.27 C 835.42 481.68, 835.18 480.07, 834.77 477.69 C 834.35 475.31, 834.31 474.05, 834.07 472.36 C 833.84 470.68, 833.75 470.12, 833.61 469.27 C 833.47 468.42, 833.58 468.38, 833.38 468.10 C 833.18 467.82, 832.96 467.68, 832.62 467.88" style="stroke: black; fill: black;"/><path d="M 1020.77,486.62 C 1020.70 485.91, 1020.43 484.94, 1019.54 483.64 C 1018.65 482.33, 1018.02 481.40, 1016.33 480.09 C 1014.64 478.77, 1013.49 477.90, 1011.10 477.05 C 1008.70 476.21, 1007.25 475.92, 1004.35 475.87 C 1001.45 475.81, 999.72 476.02, 996.60 476.77 C 993.47 477.52, 991.68 478.16, 988.73 479.60 C 985.78 481.04, 984.15 482.01, 981.85 483.97 C 979.56 485.93, 978.45 487.20, 977.25 489.39 C 976.06 491.58, 975.72 492.89, 975.88 494.93 C 976.04 496.97, 976.54 498.11, 978.06 499.58 C 979.59 501.06, 980.84 501.81, 983.52 502.30 C 986.21 502.80, 988.00 502.71, 991.49 502.04 C 994.98 501.37, 997.06 500.73, 1000.98 498.94 C 1004.89 497.16, 1007.10 495.93, 1011.08 493.11 C 1015.07 490.30, 1017.22 488.53, 1020.91 484.87 C 1024.60 481.20, 1026.45 479.03, 1029.53 474.80 C 1032.61 470.57, 1034.03 468.10, 1036.29 463.71 C 1038.55 459.32, 1039.48 456.98, 1040.82 452.87 C 1042.17 448.77, 1042.65 446.61, 1043.02 443.19 C 1043.39 439.77, 1043.21 437.78, 1042.67 435.76 C 1042.14 433.74, 1041.33 433.05, 1040.34 433.09 C 1039.35 433.13, 1038.54 433.86, 1037.72 435.95 C 1036.89 438.04, 1036.49 439.83, 1036.21 443.54 C 1035.93 447.25, 1035.98 449.86, 1036.31 454.50 C 1036.65 459.13, 1036.98 461.90, 1037.88 466.71 C 1038.78 471.52, 1039.30 474.01, 1040.81 478.53 C 1042.31 483.06, 1043.29 485.34, 1045.41 489.34 C 1047.53 493.34, 1048.79 495.27, 1051.42 498.52 C 1054.04 501.76, 1055.51 503.19, 1058.52 505.57 C 1061.54 507.94, 1063.32 508.89, 1066.48 510.40 C 1069.64 511.90, 1071.30 512.44, 1074.33 513.10 C 1077.36 513.76, 1079.20 513.72, 1081.62 513.69 C 1084.04 513.66, 1084.94 513.39, 1086.43 512.97 C 1087.92 512.55, 1088.60 512.00, 1089.08 511.59 C 1089.56 511.18, 1089.44 510.96, 1088.85 510.92 C 1088.26 510.88, 1087.59 511.29, 1086.15 511.39 C 1084.71 511.49, 1083.93 511.53, 1081.65 511.44 C 1079.38 511.35, 1077.65 511.50, 1074.77 510.94 C 1071.90 510.39, 1070.31 510.02, 1067.27 508.67 C 1064.24 507.32, 1062.51 506.44, 1059.58 504.20 C 1056.66 501.97, 1055.22 500.62, 1052.66 497.51 C 1050.09 494.39, 1048.83 492.52, 1046.74 488.63 C 1044.65 484.74, 1043.68 482.51, 1042.22 478.07 C 1040.75 473.63, 1040.24 471.17, 1039.43 466.43 C 1038.62 461.70, 1038.35 458.94, 1038.17 454.39 C 1037.99 449.85, 1038.22 447.30, 1038.52 443.72 C 1038.83 440.15, 1039.31 438.53, 1039.68 436.52 C 1040.06 434.52, 1040.14 433.80, 1040.40 433.71 C 1040.66 433.62, 1040.83 434.20, 1040.97 436.06 C 1041.11 437.91, 1041.43 439.72, 1041.10 442.99 C 1040.77 446.26, 1040.55 448.39, 1039.33 452.40 C 1038.12 456.42, 1037.21 458.75, 1035.02 463.07 C 1032.84 467.38, 1031.44 469.83, 1028.41 473.99 C 1025.39 478.15, 1023.55 480.29, 1019.91 483.85 C 1016.26 487.42, 1014.12 489.15, 1010.19 491.83 C 1006.26 494.52, 1004.06 495.67, 1000.25 497.28 C 996.43 498.89, 994.37 499.34, 991.11 499.87 C 987.84 500.40, 986.27 500.28, 983.92 499.93 C 981.57 499.59, 980.60 499.17, 979.36 498.15 C 978.12 497.12, 977.76 496.36, 977.72 494.83 C 977.68 493.29, 978.00 492.29, 979.14 490.49 C 980.28 488.69, 981.29 487.58, 983.41 485.82 C 985.53 484.06, 987.01 483.04, 989.76 481.70 C 992.50 480.36, 994.23 479.76, 997.14 479.11 C 1000.04 478.47, 1001.66 478.39, 1004.28 478.48 C 1006.89 478.57, 1008.11 478.82, 1010.20 479.57 C 1012.28 480.33, 1013.18 481.15, 1014.71 482.25 C 1016.23 483.35, 1016.77 484.09, 1017.81 485.08 C 1018.85 486.07, 1019.30 486.89, 1019.89 487.20 C 1020.48 487.50, 1020.85 487.33, 1020.77 486.62" style="stroke: black; fill: black;"/><path d="M 1239.55,434.29 C 1239.06 434.73, 1238.74 435.24, 1237.92 436.82 C 1237.10 438.41, 1236.57 439.34, 1235.44 442.21 C 1234.31 445.07, 1233.78 447.14, 1232.25 451.13 C 1230.73 455.13, 1229.78 457.53, 1227.83 462.19 C 1225.89 466.85, 1224.70 469.53, 1222.52 474.45 C 1220.34 479.36, 1219.11 482.05, 1216.94 486.78 C 1214.77 491.51, 1213.64 494.01, 1211.68 498.09 C 1209.72 502.17, 1208.57 504.38, 1207.14 507.19 C 1205.71 509.99, 1205.23 511.40, 1204.52 512.12 C 1203.82 512.83, 1203.89 512.67, 1203.60 510.76 C 1203.31 508.85, 1203.06 506.95, 1203.09 502.55 C 1203.11 498.16, 1203.16 494.75, 1203.74 488.77 C 1204.32 482.80, 1204.82 479.03, 1206.00 472.69 C 1207.18 466.35, 1207.96 463.04, 1209.66 457.08 C 1211.36 451.13, 1212.41 448.16, 1214.51 442.90 C 1216.60 437.64, 1217.82 435.06, 1220.15 430.81 C 1222.47 426.55, 1223.74 424.54, 1226.13 421.61 C 1228.52 418.67, 1229.81 417.46, 1232.09 416.13 C 1234.37 414.79, 1235.37 414.52, 1237.52 414.93 C 1239.68 415.34, 1240.71 416.00, 1242.86 418.16 C 1245.00 420.33, 1246.16 421.98, 1248.25 425.75 C 1250.33 429.52, 1251.37 432.04, 1253.30 437.02 C 1255.24 442.01, 1256.14 445.02, 1257.90 450.69 C 1259.66 456.36, 1260.48 459.53, 1262.11 465.35 C 1263.74 471.17, 1264.56 474.28, 1266.06 479.80 C 1267.56 485.32, 1268.32 488.14, 1269.62 492.95 C 1270.91 497.77, 1271.56 500.08, 1272.53 503.87 C 1273.50 507.66, 1273.87 509.40, 1274.46 511.88 C 1275.05 514.36, 1275.18 515.08, 1275.47 516.27 C 1275.76 517.46, 1275.87 517.55, 1275.92 517.84 C 1275.98 518.13, 1275.79 517.70, 1275.75 517.73 C 1275.71 517.76, 1275.57 517.93, 1275.72 517.98 C 1275.86 518.03, 1276.22 518.37, 1276.46 517.99 C 1276.70 517.61, 1276.93 517.40, 1276.92 516.09 C 1276.90 514.78, 1276.96 513.97, 1276.39 511.44 C 1275.83 508.91, 1275.19 507.21, 1274.09 503.44 C 1272.99 499.68, 1272.28 497.39, 1270.91 492.59 C 1269.54 487.80, 1268.77 484.98, 1267.24 479.47 C 1265.71 473.96, 1264.90 470.86, 1263.27 465.03 C 1261.65 459.20, 1260.84 456.02, 1259.12 450.32 C 1257.40 444.61, 1256.54 441.59, 1254.67 436.51 C 1252.80 431.43, 1251.85 428.88, 1249.76 424.93 C 1247.68 420.98, 1246.63 419.12, 1244.24 416.77 C 1241.86 414.43, 1240.45 413.65, 1237.83 413.20 C 1235.22 412.75, 1233.75 413.03, 1231.16 414.52 C 1228.57 416.01, 1227.33 417.50, 1224.90 420.63 C 1222.46 423.76, 1221.27 425.81, 1218.97 430.18 C 1216.67 434.54, 1215.49 437.15, 1213.40 442.46 C 1211.32 447.78, 1210.28 450.77, 1208.56 456.77 C 1206.84 462.77, 1206.06 466.09, 1204.80 472.46 C 1203.54 478.83, 1202.96 482.60, 1202.26 488.61 C 1201.55 494.63, 1201.30 498.03, 1201.27 502.54 C 1201.24 507.05, 1201.36 509.07, 1202.11 511.15 C 1202.86 513.22, 1203.69 513.52, 1205.04 512.91 C 1206.38 512.30, 1207.22 510.93, 1208.83 508.09 C 1210.43 505.26, 1211.20 502.89, 1213.07 498.74 C 1214.95 494.59, 1216.06 492.10, 1218.20 487.35 C 1220.35 482.61, 1221.58 479.93, 1223.80 475.02 C 1226.01 470.11, 1227.23 467.44, 1229.28 462.81 C 1231.33 458.18, 1232.36 455.80, 1234.06 451.87 C 1235.77 447.94, 1236.68 446.01, 1237.83 443.16 C 1238.97 440.30, 1239.29 439.29, 1239.80 437.59 C 1240.32 435.88, 1240.45 435.29, 1240.40 434.63 C 1240.35 433.97, 1240.05 433.85, 1239.55 434.29" style="stroke: black; fill: black;"/><path d="M 1205.83,483.74 C 1206.57 483.86, 1207.29 483.69, 1209.31 483.46 C 1211.34 483.22, 1212.59 482.96, 1215.95 482.55 C 1219.31 482.14, 1221.58 481.84, 1226.10 481.41 C 1230.62 480.98, 1233.40 480.81, 1238.56 480.41 C 1243.73 480.02, 1246.61 479.80, 1251.92 479.43 C 1257.22 479.07, 1260.05 478.85, 1265.09 478.60 C 1270.13 478.36, 1272.68 478.27, 1277.11 478.21 C 1281.54 478.15, 1283.66 478.17, 1287.23 478.31 C 1290.80 478.45, 1292.48 478.80, 1294.97 478.90 C 1297.46 478.99, 1298.23 478.89, 1299.68 478.77 C 1301.12 478.66, 1301.69 478.53, 1302.19 478.31 C 1302.68 478.10, 1302.66 477.89, 1302.17 477.70 C 1301.67 477.52, 1301.12 477.55, 1299.70 477.38 C 1298.29 477.21, 1297.56 477.03, 1295.07 476.86 C 1292.59 476.68, 1290.87 476.56, 1287.27 476.53 C 1283.67 476.50, 1281.53 476.57, 1277.08 476.70 C 1272.62 476.84, 1270.07 476.94, 1265.02 477.21 C 1259.97 477.48, 1257.14 477.71, 1251.83 478.05 C 1246.52 478.38, 1243.63 478.59, 1238.46 478.90 C 1233.29 479.20, 1230.51 479.31, 1225.96 479.58 C 1221.40 479.84, 1219.09 479.87, 1215.69 480.23 C 1212.28 480.60, 1210.94 480.89, 1208.93 481.41 C 1206.91 481.93, 1206.23 482.37, 1205.61 482.83 C 1204.99 483.30, 1205.09 483.61, 1205.83 483.74" style="stroke: black; fill: black;"/><path d="M 1323.72,480.30 C 1323.44 480.93, 1323.35 481.86, 1323.36 483.37 C 1323.37 484.88, 1323.49 485.82, 1323.76 487.86 C 1324.04 489.89, 1324.22 491.34, 1324.74 493.53 C 1325.26 495.73, 1325.59 496.94, 1326.38 498.83 C 1327.16 500.71, 1327.59 501.67, 1328.66 502.96 C 1329.72 504.24, 1330.32 504.81, 1331.71 505.25 C 1333.09 505.68, 1333.90 505.69, 1335.58 505.13 C 1337.27 504.57, 1338.22 503.93, 1340.13 502.46 C 1342.04 500.99, 1343.09 499.84, 1345.14 497.77 C 1347.19 495.70, 1348.28 494.31, 1350.37 492.12 C 1352.46 489.92, 1353.63 488.67, 1355.57 486.79 C 1357.51 484.91, 1358.47 483.93, 1360.07 482.71 C 1361.67 481.49, 1362.36 481.01, 1363.56 480.70 C 1364.77 480.40, 1365.20 480.50, 1366.09 481.18 C 1366.99 481.85, 1367.27 482.59, 1368.05 484.09 C 1368.83 485.60, 1369.14 486.79, 1370.01 488.70 C 1370.87 490.62, 1371.29 491.81, 1372.37 493.68 C 1373.46 495.56, 1374.02 496.61, 1375.42 498.08 C 1376.83 499.55, 1377.60 500.25, 1379.40 501.02 C 1381.20 501.80, 1382.25 502.02, 1384.41 501.96 C 1386.57 501.90, 1387.77 501.57, 1390.21 500.72 C 1392.65 499.88, 1394.01 499.15, 1396.62 497.74 C 1399.22 496.32, 1400.63 495.27, 1403.24 493.64 C 1405.85 492.00, 1407.25 491.04, 1409.65 489.56 C 1412.06 488.09, 1413.35 487.22, 1415.28 486.28 C 1417.22 485.35, 1418.01 484.97, 1419.33 484.89 C 1420.64 484.81, 1420.98 485.09, 1421.86 485.86 C 1422.74 486.64, 1422.99 487.31, 1423.73 488.76 C 1424.46 490.20, 1424.65 491.28, 1425.52 493.11 C 1426.40 494.93, 1426.84 496.07, 1428.11 497.87 C 1429.38 499.67, 1430.10 500.63, 1431.88 502.09 C 1433.67 503.56, 1434.68 504.28, 1437.04 505.21 C 1439.40 506.14, 1440.78 506.48, 1443.66 506.74 C 1446.54 507.00, 1448.19 506.90, 1451.43 506.49 C 1454.68 506.07, 1456.47 505.62, 1459.89 504.67 C 1463.31 503.73, 1465.15 503.08, 1468.52 501.76 C 1471.89 500.44, 1473.68 499.60, 1476.74 498.07 C 1479.79 496.54, 1481.33 495.73, 1483.80 494.12 C 1486.27 492.51, 1487.68 491.51, 1489.10 490.03 C 1490.52 488.56, 1491.01 487.69, 1490.91 486.74 C 1490.82 485.80, 1490.08 485.38, 1488.63 485.32 C 1487.17 485.27, 1485.88 485.52, 1483.65 486.46 C 1481.43 487.41, 1479.87 488.35, 1477.50 490.04 C 1475.13 491.73, 1473.65 492.88, 1471.80 494.90 C 1469.95 496.92, 1469.06 498.14, 1468.25 500.15 C 1467.43 502.16, 1467.29 503.29, 1467.73 504.96 C 1468.18 506.62, 1468.85 507.43, 1470.47 508.45 C 1472.09 509.47, 1473.33 509.86, 1475.81 510.06 C 1478.29 510.26, 1479.91 510.08, 1482.89 509.45 C 1485.86 508.82, 1487.63 508.20, 1490.69 506.92 C 1493.75 505.64, 1495.39 504.76, 1498.19 503.06 C 1501.00 501.36, 1502.53 500.37, 1504.70 498.43 C 1506.87 496.49, 1507.83 495.07, 1509.05 493.35 C 1510.28 491.63, 1510.49 490.60, 1510.81 489.82 C 1511.14 489.03, 1510.80 488.95, 1510.68 489.43 C 1510.56 489.90, 1510.14 490.65, 1510.23 492.20 C 1510.32 493.76, 1510.33 495.15, 1511.14 497.19 C 1511.94 499.24, 1512.65 500.58, 1514.25 502.45 C 1515.85 504.32, 1516.93 505.26, 1519.13 506.55 C 1521.33 507.84, 1522.58 508.33, 1525.25 508.90 C 1527.92 509.47, 1529.54 509.60, 1532.48 509.41 C 1535.42 509.22, 1537.03 508.85, 1539.96 507.95 C 1542.89 507.05, 1544.38 506.30, 1547.11 504.91 C 1549.84 503.51, 1551.31 502.67, 1553.60 500.97 C 1555.90 499.27, 1556.93 498.13, 1558.58 496.41 C 1560.23 494.68, 1560.94 493.51, 1561.84 492.35 C 1562.74 491.19, 1562.78 490.73, 1563.08 490.61 C 1563.39 490.49, 1563.19 490.85, 1563.35 491.75 C 1563.52 492.65, 1563.44 493.55, 1563.89 495.13 C 1564.35 496.70, 1564.62 497.94, 1565.64 499.62 C 1566.66 501.31, 1567.39 502.28, 1568.99 503.56 C 1570.58 504.84, 1571.48 505.37, 1573.61 506.03 C 1575.75 506.68, 1576.98 506.88, 1579.67 506.83 C 1582.36 506.77, 1583.94 506.46, 1587.06 505.76 C 1590.18 505.06, 1591.90 504.41, 1595.28 503.33 C 1598.66 502.26, 1600.61 501.51, 1603.96 500.40 C 1607.30 499.28, 1609.04 498.65, 1612.02 497.75 C 1614.99 496.86, 1616.47 496.36, 1618.81 495.91 C 1621.15 495.46, 1622.11 495.33, 1623.72 495.51 C 1625.34 495.69, 1625.74 495.99, 1626.87 496.79 C 1627.99 497.60, 1628.29 498.26, 1629.34 499.52 C 1630.39 500.78, 1630.84 501.68, 1632.10 503.09 C 1633.35 504.50, 1634.00 505.28, 1635.63 506.57 C 1637.26 507.85, 1638.19 508.52, 1640.25 509.51 C 1642.30 510.50, 1643.45 510.95, 1645.90 511.51 C 1648.35 512.06, 1649.67 512.19, 1652.49 512.28 C 1655.30 512.37, 1656.93 512.30, 1659.97 511.96 C 1663.02 511.61, 1664.65 511.26, 1667.72 510.55 C 1670.78 509.85, 1672.38 509.36, 1675.32 508.43 C 1678.25 507.49, 1679.80 507.02, 1682.39 505.88 C 1684.98 504.74, 1686.20 503.94, 1688.26 502.72 C 1690.32 501.49, 1691.23 500.87, 1692.71 499.76 C 1694.18 498.65, 1694.80 498.21, 1695.64 497.17 C 1696.48 496.14, 1696.78 495.55, 1696.91 494.59 C 1697.04 493.63, 1696.90 493.10, 1696.28 492.37 C 1695.67 491.63, 1695.07 491.23, 1693.84 490.92 C 1692.60 490.62, 1691.76 490.57, 1690.10 490.83 C 1688.44 491.09, 1687.40 491.39, 1685.54 492.20 C 1683.67 493.02, 1682.56 493.59, 1680.78 494.92 C 1679.00 496.24, 1678.03 497.14, 1676.64 498.85 C 1675.25 500.56, 1674.52 501.58, 1673.82 503.47 C 1673.13 505.36, 1672.92 506.52, 1673.16 508.31 C 1673.40 510.11, 1673.79 511.10, 1675.01 512.46 C 1676.23 513.82, 1677.18 514.46, 1679.27 515.12 C 1681.36 515.78, 1682.79 516.00, 1685.47 515.74 C 1688.15 515.49, 1689.72 515.04, 1692.66 513.84 C 1695.61 512.65, 1697.26 511.82, 1700.20 509.76 C 1703.15 507.71, 1704.71 506.39, 1707.39 503.55 C 1710.08 500.72, 1711.40 499.00, 1713.62 495.58 C 1715.83 492.15, 1716.89 490.19, 1718.47 486.41 C 1720.06 482.62, 1720.66 480.50, 1721.54 476.65 C 1722.41 472.80, 1722.66 470.78, 1722.85 467.15 C 1723.03 463.52, 1722.88 461.66, 1722.47 458.50 C 1722.05 455.34, 1721.68 453.76, 1720.77 451.36 C 1719.86 448.96, 1719.07 447.63, 1717.93 446.50 C 1716.79 445.37, 1715.94 445.11, 1715.08 445.71 C 1714.23 446.32, 1713.86 447.29, 1713.66 449.52 C 1713.45 451.76, 1713.51 453.36, 1714.05 456.88 C 1714.60 460.40, 1715.24 462.80, 1716.39 467.12 C 1717.53 471.43, 1718.23 473.99, 1719.77 478.47 C 1721.31 482.96, 1722.12 485.29, 1724.09 489.54 C 1726.07 493.79, 1727.26 495.96, 1729.65 499.71 C 1732.03 503.46, 1733.28 505.25, 1736.01 508.30 C 1738.74 511.34, 1740.29 512.72, 1743.30 514.95 C 1746.31 517.17, 1747.94 518.09, 1751.06 519.42 C 1754.18 520.74, 1755.78 521.14, 1758.93 521.58 C 1762.07 522.02, 1763.74 522.00, 1766.79 521.62 C 1769.83 521.25, 1771.52 520.73, 1774.15 519.70 C 1776.78 518.66, 1778.11 517.71, 1779.95 516.45 C 1781.78 515.19, 1782.31 514.49, 1783.33 513.38 C 1784.35 512.27, 1784.82 511.51, 1785.05 510.91 C 1785.28 510.31, 1785.05 510.14, 1784.49 510.38 C 1783.92 510.62, 1783.37 511.29, 1782.21 512.12 C 1781.05 512.95, 1780.50 513.46, 1778.71 514.52 C 1776.92 515.57, 1775.68 516.42, 1773.24 517.40 C 1770.79 518.37, 1769.29 518.97, 1766.48 519.40 C 1763.68 519.82, 1762.13 519.88, 1759.19 519.53 C 1756.26 519.17, 1754.77 518.84, 1751.80 517.64 C 1748.83 516.44, 1747.26 515.61, 1744.34 513.52 C 1741.43 511.43, 1739.90 510.13, 1737.22 507.20 C 1734.54 504.27, 1733.30 502.54, 1730.95 498.88 C 1728.60 495.22, 1727.40 493.08, 1725.48 488.90 C 1723.55 484.71, 1722.75 482.40, 1721.31 477.96 C 1719.86 473.51, 1719.21 470.95, 1718.24 466.66 C 1717.27 462.38, 1716.93 459.95, 1716.46 456.53 C 1716.00 453.11, 1716.09 451.60, 1715.94 449.55 C 1715.78 447.51, 1715.56 446.72, 1715.69 446.31 C 1715.83 445.89, 1716.04 446.32, 1716.62 447.48 C 1717.19 448.65, 1717.83 449.87, 1718.58 452.14 C 1719.33 454.40, 1719.90 455.82, 1720.38 458.80 C 1720.85 461.79, 1721.08 463.58, 1720.96 467.07 C 1720.85 470.57, 1720.63 472.53, 1719.81 476.26 C 1718.99 479.99, 1718.40 482.07, 1716.87 485.74 C 1715.33 489.40, 1714.29 491.30, 1712.12 494.60 C 1709.95 497.90, 1708.64 499.55, 1706.02 502.24 C 1703.40 504.92, 1701.87 506.15, 1699.02 508.02 C 1696.17 509.88, 1694.54 510.54, 1691.78 511.56 C 1689.01 512.59, 1687.58 512.88, 1685.21 513.13 C 1682.83 513.39, 1681.65 513.25, 1679.91 512.83 C 1678.17 512.42, 1677.45 512.00, 1676.51 511.05 C 1675.58 510.11, 1675.34 509.43, 1675.24 508.09 C 1675.13 506.75, 1675.33 505.86, 1676.00 504.35 C 1676.68 502.83, 1677.33 501.96, 1678.61 500.52 C 1679.89 499.07, 1680.78 498.27, 1682.40 497.13 C 1684.01 495.98, 1685.02 495.51, 1686.66 494.80 C 1688.31 494.09, 1689.24 493.90, 1690.61 493.59 C 1691.98 493.29, 1692.59 493.29, 1693.52 493.27 C 1694.44 493.26, 1694.82 493.33, 1695.21 493.52 C 1695.60 493.72, 1695.66 493.79, 1695.47 494.26 C 1695.27 494.74, 1695.04 495.14, 1694.24 495.89 C 1693.44 496.64, 1692.89 497.05, 1691.46 498.01 C 1690.03 498.97, 1689.10 499.56, 1687.09 500.69 C 1685.08 501.81, 1683.90 502.54, 1681.40 503.64 C 1678.90 504.75, 1677.45 505.29, 1674.61 506.22 C 1671.77 507.15, 1670.18 507.62, 1667.20 508.28 C 1664.22 508.94, 1662.64 509.25, 1659.72 509.53 C 1656.79 509.81, 1655.23 509.79, 1652.57 509.70 C 1649.92 509.61, 1648.69 509.55, 1646.44 509.07 C 1644.19 508.58, 1643.18 508.16, 1641.33 507.27 C 1639.48 506.38, 1638.66 505.78, 1637.19 504.60 C 1635.72 503.43, 1635.20 502.71, 1633.98 501.38 C 1632.75 500.05, 1632.26 499.20, 1631.05 497.97 C 1629.83 496.74, 1629.31 496.09, 1627.90 495.22 C 1626.48 494.36, 1625.87 493.95, 1623.98 493.65 C 1622.09 493.35, 1620.95 493.32, 1618.43 493.72 C 1615.91 494.12, 1614.40 494.70, 1611.37 495.63 C 1608.34 496.57, 1606.63 497.28, 1603.29 498.40 C 1599.94 499.52, 1597.99 500.25, 1594.64 501.25 C 1591.29 502.25, 1589.56 502.79, 1586.56 503.40 C 1583.55 504.00, 1582.06 504.21, 1579.60 504.29 C 1577.15 504.37, 1576.08 504.32, 1574.27 503.80 C 1572.47 503.29, 1571.78 502.84, 1570.57 501.71 C 1569.35 500.59, 1568.98 499.70, 1568.19 498.18 C 1567.40 496.67, 1567.28 495.57, 1566.63 494.13 C 1565.98 492.68, 1565.67 491.86, 1564.94 490.97 C 1564.21 490.07, 1563.89 489.66, 1562.99 489.65 C 1562.09 489.65, 1561.65 489.95, 1560.42 490.95 C 1559.19 491.96, 1558.50 493.07, 1556.84 494.68 C 1555.18 496.28, 1554.28 497.35, 1552.12 498.98 C 1549.95 500.60, 1548.59 501.45, 1546.02 502.79 C 1543.45 504.12, 1542.00 504.82, 1539.26 505.64 C 1536.52 506.46, 1535.02 506.72, 1532.32 506.89 C 1529.62 507.06, 1528.14 506.98, 1525.75 506.49 C 1523.37 506.00, 1522.27 505.60, 1520.40 504.44 C 1518.52 503.29, 1517.66 502.41, 1516.39 500.73 C 1515.13 499.04, 1514.83 497.83, 1514.09 496.02 C 1513.36 494.21, 1513.26 493.08, 1512.74 491.69 C 1512.22 490.29, 1512.09 489.59, 1511.51 489.05 C 1510.93 488.51, 1510.71 488.42, 1509.86 488.99 C 1509.00 489.56, 1508.60 490.38, 1507.24 491.90 C 1505.87 493.42, 1505.09 494.74, 1503.04 496.58 C 1500.99 498.42, 1499.65 499.48, 1497.00 501.10 C 1494.35 502.73, 1492.73 503.57, 1489.80 504.71 C 1486.87 505.85, 1485.12 506.26, 1482.34 506.82 C 1479.57 507.38, 1478.11 507.52, 1475.93 507.50 C 1473.75 507.48, 1472.74 507.30, 1471.43 506.71 C 1470.11 506.12, 1469.61 505.68, 1469.36 504.55 C 1469.11 503.42, 1469.31 502.61, 1470.18 501.07 C 1471.06 499.52, 1471.91 498.52, 1473.74 496.84 C 1475.57 495.15, 1477.09 494.21, 1479.34 492.67 C 1481.58 491.12, 1483.07 490.23, 1484.98 489.09 C 1486.89 487.94, 1487.88 487.43, 1488.91 486.94 C 1489.94 486.46, 1490.37 486.35, 1490.13 486.66 C 1489.90 486.96, 1489.26 487.37, 1487.73 488.46 C 1486.20 489.55, 1484.89 490.56, 1482.50 492.12 C 1480.11 493.67, 1478.73 494.67, 1475.78 496.22 C 1472.84 497.77, 1471.07 498.58, 1467.78 499.87 C 1464.49 501.15, 1462.66 501.76, 1459.34 502.63 C 1456.02 503.50, 1454.26 503.88, 1451.17 504.20 C 1448.08 504.52, 1446.55 504.47, 1443.89 504.22 C 1441.24 503.97, 1440.00 503.75, 1437.91 502.96 C 1435.82 502.16, 1434.96 501.56, 1433.43 500.25 C 1431.89 498.94, 1431.33 498.09, 1430.24 496.42 C 1429.15 494.75, 1428.86 493.68, 1427.97 491.91 C 1427.08 490.13, 1426.79 489.03, 1425.78 487.54 C 1424.78 486.05, 1424.24 485.32, 1422.95 484.44 C 1421.65 483.55, 1421.02 483.17, 1419.31 483.12 C 1417.59 483.07, 1416.57 483.33, 1414.37 484.18 C 1412.18 485.03, 1410.83 485.91, 1408.34 487.38 C 1405.85 488.85, 1404.53 489.93, 1401.93 491.53 C 1399.33 493.14, 1397.89 494.06, 1395.36 495.42 C 1392.84 496.77, 1391.54 497.44, 1389.32 498.30 C 1387.11 499.15, 1386.10 499.53, 1384.29 499.68 C 1382.47 499.83, 1381.68 499.70, 1380.25 499.07 C 1378.83 498.43, 1378.26 497.86, 1377.15 496.53 C 1376.04 495.20, 1375.62 494.22, 1374.70 492.42 C 1373.79 490.61, 1373.48 489.44, 1372.57 487.52 C 1371.66 485.60, 1371.27 484.37, 1370.17 482.80 C 1369.06 481.23, 1368.44 480.42, 1367.05 479.66 C 1365.66 478.90, 1364.88 478.74, 1363.23 478.99 C 1361.58 479.23, 1360.69 479.70, 1358.81 480.88 C 1356.92 482.07, 1355.87 483.03, 1353.81 484.92 C 1351.75 486.81, 1350.65 488.15, 1348.52 490.32 C 1346.38 492.49, 1345.16 493.76, 1343.13 495.76 C 1341.11 497.76, 1340.06 498.86, 1338.39 500.34 C 1336.71 501.82, 1335.99 502.50, 1334.76 503.15 C 1333.53 503.81, 1333.11 503.89, 1332.22 503.61 C 1331.34 503.33, 1331.03 502.87, 1330.34 501.74 C 1329.65 500.60, 1329.33 499.72, 1328.79 497.95 C 1328.24 496.18, 1328.05 495.01, 1327.61 492.89 C 1327.17 490.78, 1327.00 489.33, 1326.60 487.37 C 1326.20 485.41, 1325.96 484.52, 1325.59 483.08 C 1325.22 481.65, 1325.14 480.77, 1324.76 480.21 C 1324.39 479.66, 1324.00 479.67, 1323.72 480.30" style="stroke: black; fill: black;"/><path d="M 1814.71,502.52 C 1814.62 501.86, 1814.35 501.01, 1813.42 499.88 C 1812.50 498.75, 1811.82 497.95, 1810.08 496.85 C 1808.34 495.76, 1807.15 495.07, 1804.73 494.41 C 1802.32 493.76, 1800.88 493.56, 1798.01 493.58 C 1795.13 493.60, 1793.42 493.82, 1790.36 494.50 C 1787.29 495.18, 1785.53 495.72, 1782.68 496.98 C 1779.82 498.23, 1778.27 499.07, 1776.07 500.80 C 1773.88 502.52, 1772.82 503.64, 1771.70 505.60 C 1770.59 507.57, 1770.28 508.79, 1770.49 510.62 C 1770.70 512.45, 1771.22 513.45, 1772.76 514.76 C 1774.30 516.06, 1775.52 516.66, 1778.19 517.15 C 1780.87 517.64, 1782.67 517.56, 1786.14 517.19 C 1789.61 516.82, 1791.72 516.33, 1795.55 515.29 C 1799.37 514.25, 1801.53 513.45, 1805.26 511.97 C 1808.99 510.48, 1810.98 509.45, 1814.19 507.87 C 1817.40 506.29, 1819.12 505.26, 1821.31 504.05 C 1823.50 502.84, 1824.15 502.15, 1825.15 501.81 C 1826.15 501.47, 1826.08 501.59, 1826.32 502.34 C 1826.56 503.08, 1826.19 503.86, 1826.35 505.53 C 1826.52 507.19, 1826.39 508.52, 1827.15 510.66 C 1827.90 512.80, 1828.45 514.13, 1830.11 516.23 C 1831.77 518.32, 1832.84 519.44, 1835.43 521.14 C 1838.02 522.84, 1839.66 523.58, 1843.04 524.74 C 1846.42 525.90, 1848.51 526.30, 1852.32 526.95 C 1856.12 527.61, 1858.24 527.81, 1862.06 528.03 C 1865.88 528.25, 1868.12 528.19, 1871.41 528.05 C 1874.70 527.90, 1876.26 527.69, 1878.49 527.30 C 1880.72 526.91, 1881.77 526.48, 1882.57 526.09 C 1883.36 525.71, 1883.30 525.48, 1882.44 525.36 C 1881.59 525.24, 1880.51 525.39, 1878.29 525.50 C 1876.06 525.61, 1874.55 525.77, 1871.32 525.89 C 1868.10 526.00, 1865.89 526.24, 1862.16 526.07 C 1858.43 525.89, 1856.34 525.68, 1852.66 525.01 C 1848.98 524.34, 1846.93 523.90, 1843.76 522.73 C 1840.59 521.55, 1839.11 520.75, 1836.79 519.13 C 1834.48 517.51, 1833.58 516.52, 1832.19 514.63 C 1830.79 512.75, 1830.51 511.62, 1829.82 509.71 C 1829.13 507.79, 1829.22 506.66, 1828.74 505.05 C 1828.26 503.45, 1828.18 502.59, 1827.41 501.67 C 1826.65 500.76, 1826.34 500.40, 1824.92 500.48 C 1823.49 500.56, 1822.61 500.94, 1820.29 502.06 C 1817.96 503.17, 1816.42 504.43, 1813.27 506.06 C 1810.13 507.69, 1808.20 508.75, 1804.55 510.21 C 1800.91 511.66, 1798.76 512.41, 1795.03 513.34 C 1791.31 514.27, 1789.21 514.60, 1785.92 514.87 C 1782.63 515.13, 1780.99 514.99, 1778.60 514.66 C 1776.20 514.32, 1775.22 514.05, 1773.94 513.21 C 1772.67 512.36, 1772.32 511.75, 1772.23 510.45 C 1772.15 509.15, 1772.43 508.26, 1773.50 506.72 C 1774.56 505.18, 1775.53 504.24, 1777.56 502.74 C 1779.59 501.23, 1780.99 500.37, 1783.65 499.20 C 1786.32 498.04, 1788.01 497.51, 1790.88 496.92 C 1793.74 496.33, 1795.38 496.23, 1798.00 496.25 C 1800.63 496.28, 1801.88 496.46, 1804.01 497.05 C 1806.15 497.64, 1807.11 498.31, 1808.68 499.19 C 1810.25 500.08, 1810.83 500.68, 1811.88 501.47 C 1812.92 502.26, 1813.33 502.93, 1813.89 503.14 C 1814.46 503.35, 1814.80 503.17, 1814.71 502.52" style="stroke: black; fill: black;"/></svg>